<svg width="356" height="57" viewBox="0 0 356 57" fill="none" xmlns="http://www.w3.org/2000/svg">
<g clip-path="url(#clip0_191_1459)">
<path d="M0.5 50.8945H57.4519V56.494H0.5V50.8945Z" fill="#E0E0E0"/>
<path fill-rule="evenodd" clip-rule="evenodd" d="M180.921 35.8744L184.772 33.0634C187.43 37.0543 191.349 40.4529 196.99 40.4529C202.172 40.4529 205.82 37.6417 205.82 33.2575C205.82 29.2667 202.832 27.6984 198.519 25.6738L193.602 23.3871C189.022 21.2314 183.707 18.2212 183.707 11.8124C183.707 4.94729 189.816 0.563117 196.921 0.563117C202.897 0.563117 207.946 3.63641 210.668 7.88465L206.881 10.6958C204.489 7.22921 200.836 5.26774 196.852 5.26774C192.799 5.26774 189.081 7.29717 189.081 11.5454C189.081 15.4684 192.138 16.9055 196.122 18.8038L200.969 21.0907C207.345 24.1009 211.194 27.2373 211.194 33.1216C211.194 40.38 205.15 45.1526 197.049 45.1526C190.082 45.1623 184.309 41.5646 180.921 35.8744ZM224.083 25.6108H244.604C244.539 19.7263 240.088 16.454 234.974 16.454C229.526 16.454 225.211 20.1196 224.083 25.6108ZM249.45 30.058H223.886C224.55 36.3988 229.398 40.5208 235.772 40.5208C239.825 40.5208 243.01 38.8216 245.669 36.2047L248.657 39.6081C245.403 43.0067 241.018 45.1672 235.709 45.1672C225.947 45.1672 218.575 37.9087 218.575 28.5578C218.575 19.2748 225.813 11.8853 235.112 11.8853C243.415 11.8853 249.854 17.7697 249.854 26.2711C249.85 27.9654 249.584 29.4026 249.45 30.058ZM285.571 24.4309V44.4389H280.459V25.0184C280.459 19.9837 277.402 16.5171 272.422 16.5171C267.442 16.5171 263.922 20.0467 263.922 25.0184V44.4389H258.808V12.5941H263.59V15.9927C265.914 13.4438 269.369 11.8756 273.55 11.8756C281.189 11.8804 285.571 17.0414 285.571 24.4309ZM293.341 38.9478L296.596 35.6123C299.252 38.3603 301.974 40.516 305.895 40.516C309.281 40.516 312.072 38.8798 312.072 36.0055C312.072 33.2575 309.681 32.2137 306.427 30.9029L303.305 29.5967C298.39 27.5673 295.268 25.2806 295.268 20.7701C295.268 15.0168 300.248 11.8756 306.161 11.8756C310.809 11.8756 314.464 13.837 316.983 16.9103L313.862 20.0467C311.736 17.8911 308.946 16.5171 305.895 16.5171C302.838 16.5171 300.514 17.8911 300.514 20.5031C300.514 22.6636 302.177 23.6444 305.761 25.1447L308.748 26.3876C314.527 28.8054 317.314 31.2913 317.314 35.8017C317.314 42.0114 311.934 45.1526 305.958 45.1526C300.248 45.1623 295.929 42.3513 293.341 38.9478ZM329.729 25.6108H350.25C350.185 19.7263 345.734 16.454 340.62 16.454C335.176 16.454 330.857 20.1196 329.729 25.6108ZM355.096 30.058H329.532C330.196 36.3988 335.044 40.5208 341.418 40.5208C345.471 40.5208 348.656 38.8216 351.315 36.2047L354.303 39.6081C351.049 43.0067 346.664 45.1672 341.355 45.1672C331.593 45.1672 324.221 37.9087 324.221 28.5578C324.221 19.2748 331.459 11.8853 340.758 11.8853C349.061 11.8853 355.5 17.7697 355.5 26.2711C355.494 27.9654 355.228 29.4026 355.096 30.058ZM20.0888 0.5L0.5 44.4437H10.1292L12.5846 38.8216H30.5119L32.9673 44.4437H42.5965L23.0766 0.5H20.0888ZM21.5483 16.9783L27.3909 31.5583H15.7056L21.5483 16.9783ZM91.4725 28.2908C91.4725 22.7996 87.6858 19.333 82.9722 19.333C78.8554 19.333 74.6694 22.0131 74.6694 28.2276C74.6694 34.3742 78.7864 37.1854 82.9722 37.1854C87.6217 37.1854 91.4725 33.782 91.4725 28.2908ZM84.6338 45.2253C80.5809 45.2253 77.1297 43.7883 74.8074 41.3024V56.4942H65.8437V12.0698H74.0777V16.1238C76.3359 13.0505 80.1224 11.3512 84.6338 11.3512C93.9326 11.3512 100.569 18.4785 100.569 28.2227C100.569 37.9671 93.9326 45.2253 84.6338 45.2253ZM165.05 32.3448V31.9515H158.009C155.086 31.9515 153.429 33.0634 153.429 35.219C153.429 37.4427 155.352 38.7487 158.142 38.7487C161.929 38.7535 165.05 36.1366 165.05 32.3448ZM174.014 25.2174V44.4437H165.78V41.3073C163.458 43.7253 160.001 45.2304 155.751 45.2304C148.577 45.2304 144.396 41.0451 144.396 35.5541C144.396 29.6696 149.243 26.14 156.816 26.14H165.05V24.7027C165.05 21.1731 162.989 19.0126 158.941 19.0126C155.421 19.0126 152.965 20.6488 150.244 23.4598L145.594 18.0319C149.445 13.5215 154.159 11.3609 159.937 11.3609C168.304 11.3561 174.014 15.9976 174.014 25.2174ZM47.9807 44.4437H56.9442V0.5H47.9807V44.4437ZM125.606 11.3561C121.889 11.3561 118.768 12.6621 116.574 14.8226V0.5H107.61V44.4437H116.574V25.6108C116.574 21.882 119.162 19.333 122.815 19.333C126.469 19.333 128.924 21.8188 128.924 25.6108V44.4437H137.824V24.3679C137.824 16.585 133.11 11.3561 125.606 11.3561Z" fill="#E0E0E0"/>
</g>
<defs>
<clipPath id="clip0_191_1459">
<rect width="355" height="56" fill="white" transform="translate(0.5 0.5)"/>
</clipPath>
</defs>
</svg>
