<svg width="301" height="46" viewBox="0 0 301 46" fill="none" xmlns="http://www.w3.org/2000/svg">
<g clip-path="url(#clip0_191_1449)">
<path d="M126.572 45.5098V28.5833C126.572 23.0293 129.69 20.1956 134.463 20.1956C139.198 20.1956 142.316 23.0671 142.316 28.5833V45.5098H148.745V27.6765C148.745 19.2133 143.279 14.755 136.311 14.755C132.269 14.755 128.766 16.2285 126.61 18.7599V8.06748C126.61 6.89623 124.916 4.28924 121.49 0.284315C121.221 -0.0179438 120.72 -0.0935067 120.413 0.17097C120.22 0.322099 120.143 0.511011 120.143 0.737705V45.472H126.572V45.5098ZM169.494 46.0009C174.729 46.0009 178.463 43.5829 180.465 41.0137V45.5098H185.469C186.316 45.5098 187.009 44.8297 187.009 43.9985V16.7574C187.009 15.9262 186.316 15.2461 185.469 15.2461H180.465V19.6667C178.54 17.2108 174.883 14.7927 169.609 14.7927C161.371 14.7927 154.827 20.9513 154.827 30.2835C154.827 39.6157 161.371 46.0009 169.494 46.0009ZM170.956 40.5603C166.145 40.5603 161.448 36.7821 161.448 30.2457C161.448 23.7094 166.106 20.1956 170.956 20.1956C175.845 20.1956 180.465 23.8605 180.465 30.3591C180.465 36.8954 175.845 40.5603 170.956 40.5603ZM201.983 43.9985V29.6034C201.983 23.1804 204.948 21.2535 209.721 21.2535H211.376V14.755C206.949 14.755 203.831 16.6063 201.983 19.6289V15.2461H197.056C196.209 15.2461 195.516 15.9262 195.516 16.7574V45.5098H200.444C201.291 45.5098 201.983 44.8297 201.983 43.9985ZM233.241 45.5098L244.366 17.3242C244.674 16.5307 244.289 15.6617 243.481 15.3595C243.289 15.2839 243.096 15.2461 242.942 15.2461H238.323L229.469 39.918L220.615 15.2461H215.919C215.072 15.2461 214.379 15.9262 214.379 16.7574C214.379 16.9463 214.417 17.1352 214.494 17.2864L225.581 45.472H233.241V45.5098ZM263.537 46.0009C271.197 46.0009 276.163 41.7693 277.896 36.5176H270.889C269.696 38.8601 267.463 40.7492 263.498 40.7492C258.725 40.7492 255.029 37.7266 254.568 32.7393H278.511C278.665 31.6814 278.742 30.6991 278.742 29.679C278.742 20.8001 272.429 14.7927 263.498 14.7927C254.221 14.7927 247.869 20.8757 247.869 30.3968C247.869 39.918 254.568 46.0009 263.537 46.0009ZM272.006 27.6765H254.683C255.376 22.9159 258.879 20.0445 263.267 20.0445C268.079 20.0445 271.89 22.9915 272.006 27.6765ZM291.6 43.9985V29.6034C291.6 23.1804 294.564 21.2535 299.337 21.2535H300.993V14.755C296.566 14.755 293.448 16.6063 291.6 19.6289V15.2461H285.133V45.5098H290.06C290.907 45.5098 291.6 44.8297 291.6 43.9985Z" fill="#E0E0E0"/>
<path d="M4.15746 42.5169L31.7969 23.588V9.30626C31.7969 8.32392 31.2579 7.45493 30.3725 7.00154C29.4872 6.54815 28.4478 6.62372 27.6394 7.19045L0 26.0816V40.3633C0 41.3457 0.538929 42.2147 1.42431 42.6681C2.3097 43.1215 3.34907 43.0459 4.15746 42.5169Z" fill="#E0E0E0"/>
<path opacity="0.5" d="M35.9929 42.5169L63.6323 23.588V9.30626C63.6323 8.32392 63.0934 7.45493 62.208 7.00154C61.3226 6.54815 60.2832 6.62372 59.4749 7.19045L31.8354 26.1194V40.4011C31.8354 41.3835 32.3744 42.2525 33.2598 42.7059C34.1451 43.1592 35.1845 43.0459 35.9929 42.5169Z" fill="#E0E0E0"/>
<path opacity="0.25" d="M67.8284 42.5169L95.4678 23.588V9.30626C95.4678 8.32392 94.9288 7.45493 94.0434 7.00154C93.1581 6.54815 92.1187 6.62372 91.3103 7.19045L63.6709 26.1194V40.4011C63.6709 41.3835 64.2098 42.2525 65.0952 42.7059C65.9806 43.1592 67.02 43.0459 67.8284 42.5169Z" fill="#E0E0E0"/>
</g>
<defs>
<clipPath id="clip0_191_1449">
<rect width="301" height="46" fill="white"/>
</clipPath>
</defs>
</svg>
