<svg width="333" height="74" viewBox="0 0 333 74" fill="none" xmlns="http://www.w3.org/2000/svg">
<g clip-path="url(#clip0_191_1480)">
<path d="M94.0679 50.4823V23.8384H101.081V33.7592H108.992V23.8384H116.006V50.4823H108.992V39.9075H101.081V50.4823H94.0679ZM127.488 50.9741C125.259 50.9741 123.642 50.2226 122.634 48.7198C121.628 47.1895 121.126 45.1539 121.126 42.6141V29.9886H128.139V41.7125C128.139 43.0242 128.303 43.8983 128.629 44.3355C128.982 44.7728 129.499 44.9914 130.178 44.9914C130.83 44.9914 131.374 44.8548 131.809 44.5816C132.244 44.3084 132.679 43.8437 133.114 43.1879V29.9898H140.128V50.4815H134.419L133.93 47.7765H133.767C132.951 48.7601 132.041 49.5389 131.035 50.1128C130.056 50.6866 128.874 50.9733 127.487 50.9733L127.488 50.9741ZM152.286 58.9254C150.737 58.9254 149.309 58.7478 148.006 58.3926C146.701 58.0645 145.654 57.5317 144.866 56.7938C144.105 56.0564 143.724 55.0724 143.724 53.8427C143.724 52.2308 144.676 50.9191 146.579 49.9077V49.7436C146.057 49.3563 145.603 48.8854 145.233 48.3503C144.88 47.7765 144.703 47.0657 144.703 46.2187C144.703 45.5083 144.907 44.8115 145.315 44.1285C145.75 43.4452 146.307 42.8579 146.986 42.3661V42.202C146.252 41.7102 145.6 41.0134 145.029 40.1114C144.485 39.1824 144.214 38.1304 144.214 36.9557C144.214 35.2613 144.621 33.868 145.437 32.7768C146.28 31.6563 147.367 30.8368 148.699 30.3175C150.031 29.7712 151.445 29.4976 152.941 29.4976C154.137 29.4976 155.224 29.6617 156.203 29.9898H163.786V35.074H160.85C160.932 35.3201 161 35.6343 161.054 36.0166C161.136 36.3993 161.176 36.7955 161.176 37.2052C161.176 38.8176 160.81 40.1292 160.075 41.1403C159.341 42.1239 158.349 42.8482 157.099 43.3125C155.848 43.7772 154.462 44.0094 152.941 44.0094C152.262 44.0094 151.501 43.9138 150.658 43.7223C150.331 44.0229 150.169 44.4191 150.169 44.9109C150.169 45.3481 150.386 45.6623 150.821 45.8538C151.283 46.045 152.017 46.1406 153.023 46.1406H156.081C158.637 46.1406 160.608 46.5642 161.994 47.4112C163.407 48.2311 164.114 49.5834 164.114 51.4701C164.114 52.9458 163.625 54.2436 162.646 55.3626C161.695 56.4828 160.336 57.3572 158.57 57.9856C156.803 58.6143 154.709 58.9285 152.292 58.9285L152.286 58.9254ZM152.939 39.8267C153.591 39.8267 154.121 39.5945 154.529 39.1298C154.937 38.6655 155.141 37.9412 155.141 36.9576C155.141 36.0011 154.937 35.3042 154.529 34.867C154.121 34.4027 153.591 34.1705 152.939 34.1705C152.286 34.1705 151.756 34.4027 151.348 34.867C150.94 35.3042 150.737 36.0011 150.737 36.9576C150.737 37.9412 150.94 38.6655 151.348 39.1298C151.756 39.5945 152.286 39.8267 152.939 39.8267ZM153.428 54.5841C154.57 54.5841 155.521 54.4065 156.282 54.0513C157.044 53.7232 157.424 53.2724 157.424 52.6986C157.424 52.1523 157.18 51.8106 156.69 51.674C156.228 51.5374 155.562 51.4689 154.692 51.4689H153.102C152.286 51.4689 151.661 51.4419 151.226 51.3869C150.818 51.3598 150.465 51.3053 150.166 51.2232C149.677 51.715 149.432 52.2068 149.432 52.6986C149.432 53.3544 149.799 53.8327 150.533 54.1333C151.294 54.434 152.259 54.5841 153.428 54.5841ZM174.546 58.9293C172.996 58.9293 171.569 58.7517 170.265 58.3965C168.96 58.0684 167.914 57.5356 167.125 56.7977C166.364 56.0602 165.984 55.0763 165.984 53.8466C165.984 52.2347 166.935 50.923 168.838 49.9116V49.7475C168.317 49.3602 167.862 48.8893 167.492 48.3542C167.139 47.7804 166.962 47.0696 166.962 46.2226C166.962 45.5122 167.166 44.8153 167.574 44.1324C168.009 43.4491 168.566 42.8617 169.246 42.3699V42.2059C168.512 41.7141 167.859 41.0172 167.288 40.1153C166.745 39.1863 166.473 38.1342 166.473 36.9595C166.473 35.2652 166.881 33.8718 167.696 32.7807C168.539 31.6602 169.626 30.8406 170.958 30.3214C172.29 29.775 173.704 29.5015 175.201 29.5015C176.397 29.5015 177.484 29.6655 178.463 29.9937H186.046V35.0779H183.11C183.192 35.324 183.26 35.6382 183.314 36.0204C183.395 36.4031 183.436 36.7993 183.436 37.2091C183.436 38.8214 183.069 40.1331 182.335 41.1441C181.602 42.1277 180.609 42.8521 179.359 43.3164C178.108 43.7811 176.722 44.0132 175.201 44.0132C174.522 44.0132 173.761 43.9177 172.918 43.7261C172.592 44.0268 172.429 44.423 172.429 44.9148C172.429 45.352 172.646 45.6662 173.081 45.8577C173.543 46.0488 174.277 46.1444 175.283 46.1444H178.341C180.896 46.1444 182.868 46.5681 184.254 47.4151C185.667 48.235 186.374 49.5873 186.374 51.474C186.374 52.9497 185.885 54.2475 184.906 55.3665C183.955 56.4866 182.596 57.3611 180.83 57.9895C179.063 58.6182 176.969 58.9324 174.551 58.9324L174.546 58.9293ZM175.198 39.8305C175.85 39.8305 176.38 39.5984 176.788 39.1337C177.196 38.6694 177.4 37.945 177.4 36.9615C177.4 36.005 177.196 35.3081 176.788 34.8709C176.38 34.4066 175.85 34.1744 175.198 34.1744C174.546 34.1744 174.015 34.4066 173.608 34.8709C173.2 35.3081 172.996 36.005 172.996 36.9615C172.996 37.945 173.2 38.6694 173.608 39.1337C174.015 39.5984 174.546 39.8305 175.198 39.8305ZM175.687 54.588C176.829 54.588 177.78 54.4104 178.542 54.0552C179.303 53.7271 179.684 53.2763 179.684 52.7025C179.684 52.1561 179.439 51.8145 178.949 51.6779C178.488 51.5413 177.821 51.4728 176.951 51.4728H175.361C174.546 51.4728 173.92 51.4457 173.485 51.3908C173.078 51.3637 172.724 51.3091 172.425 51.2271C171.936 51.7189 171.691 52.2107 171.691 52.7025C171.691 53.3583 172.058 53.8366 172.792 54.1372C173.553 54.4378 174.518 54.588 175.687 54.588ZM189.384 50.4904V29.9987H196.397V50.4904H189.384ZM192.89 27.4566C191.749 27.4566 190.824 27.1424 190.117 26.514C189.411 25.8582 189.057 24.9973 189.057 23.9317C189.057 22.8661 189.411 22.0187 190.117 21.3903C190.824 20.7345 191.749 20.4067 192.89 20.4067C194.032 20.4067 194.956 20.7345 195.663 21.3903C196.37 22.0187 196.723 22.8661 196.723 23.9317C196.723 24.9973 196.37 25.8582 195.663 26.514C194.956 27.1424 194.032 27.4566 192.89 27.4566ZM201.132 50.4904V29.9987H206.841L207.33 32.4576H207.493C208.308 31.6652 209.233 30.9823 210.266 30.4084C211.326 29.8072 212.549 29.5065 213.936 29.5065C216.192 29.5065 217.808 30.2719 218.79 31.8022C219.796 33.305 220.299 35.3271 220.299 37.8692V50.4947H213.285V38.7707C213.285 37.459 213.122 36.5846 212.796 36.1474C212.469 35.7101 211.953 35.4915 211.246 35.4915C210.594 35.4915 210.05 35.6281 209.615 35.9017C209.18 36.1748 208.691 36.5575 208.147 37.0493V50.4912L201.132 50.4904ZM232.285 58.9332C230.736 58.9332 229.308 58.7556 228.005 58.4004C226.7 58.0723 225.653 57.5395 224.865 56.8016C224.104 56.0641 223.723 55.0801 223.723 53.8505C223.723 52.2385 224.675 50.9269 226.578 49.9154V49.7514C226.056 49.364 225.602 48.8932 225.232 48.358C224.879 47.7842 224.702 47.0734 224.702 46.2264C224.702 45.5161 224.906 44.8192 225.314 44.1363C225.749 43.4529 226.306 42.8656 226.985 42.3738V42.2098C226.251 41.718 225.599 41.0211 225.028 40.1192C224.484 39.1902 224.213 38.1381 224.213 36.9634C224.213 35.269 224.62 33.8757 225.436 32.7846C226.279 31.664 227.366 30.8445 228.698 30.3253C230.03 29.7789 231.444 29.5054 232.94 29.5054C234.136 29.5054 235.223 29.6694 236.202 29.9975H243.785V35.0818H240.849C240.931 35.3278 240.999 35.642 241.053 36.0243C241.135 36.407 241.176 36.8032 241.176 37.213C241.176 38.8253 240.809 40.137 240.075 41.148C239.341 42.1316 238.348 42.8559 237.098 43.3202C235.847 43.7849 234.461 44.0171 232.941 44.0171C232.261 44.0171 231.5 43.9215 230.657 43.73C230.331 44.0306 230.168 44.4268 230.168 44.9186C230.168 45.3559 230.385 45.67 230.82 45.8616C231.282 46.0527 232.016 46.1483 233.022 46.1483H236.081C238.636 46.1483 240.608 46.572 241.993 47.419C243.407 48.2389 244.114 49.5912 244.114 51.4778C244.114 52.9536 243.624 54.2513 242.645 55.3703C241.694 56.4905 240.335 57.365 238.569 57.9933C236.802 58.6221 234.708 58.9363 232.291 58.9363L232.285 58.9332ZM232.938 39.8344C233.59 39.8344 234.12 39.6022 234.528 39.1375C234.936 38.6732 235.14 37.9489 235.14 36.9653C235.14 36.0088 234.936 35.312 234.528 34.8748C234.12 34.4104 233.59 34.1783 232.938 34.1783C232.285 34.1783 231.755 34.4104 231.347 34.8748C230.939 35.312 230.736 36.0088 230.736 36.9653C230.736 37.9489 230.939 38.6732 231.347 39.1375C231.755 39.6022 232.285 39.8344 232.938 39.8344ZM233.427 54.5918C234.569 54.5918 235.52 54.4142 236.281 54.059C237.043 53.7309 237.423 53.2802 237.423 52.7063C237.423 52.16 237.179 51.8183 236.689 51.6818C236.227 51.5452 235.561 51.4767 234.691 51.4767H233.101C232.285 51.4767 231.66 51.4496 231.225 51.3947C230.817 51.3676 230.464 51.313 230.165 51.231C229.675 51.7228 229.431 52.2146 229.431 52.7063C229.431 53.3622 229.798 53.8404 230.532 54.1411C231.293 54.4417 232.258 54.5918 233.427 54.5918ZM255.857 50.4943V23.8504H273.145V29.7511H262.871V34.8353H271.678V40.7359H262.871V50.4904L255.857 50.4943ZM280.817 50.9861C279.539 50.9861 278.438 50.6993 277.514 50.1255C276.632 49.5405 275.915 48.7357 275.435 47.7893C274.945 46.8328 274.701 45.7943 274.701 44.6741C274.701 42.5425 275.571 40.876 277.31 39.675C279.05 38.4453 281.875 37.6258 285.79 37.2157C285.627 35.7949 284.676 35.0845 282.936 35.0845C282.202 35.0845 281.427 35.2346 280.612 35.5352C279.796 35.8084 278.858 36.2321 277.798 36.8059L275.352 32.2169C276.792 31.3425 278.247 30.6731 279.713 30.2084C281.205 29.7445 282.759 29.5096 284.321 29.5115C286.985 29.5115 289.063 30.2769 290.56 31.8072C292.056 33.31 292.803 35.7422 292.803 39.1047V50.4997H287.094L286.605 48.5322H286.442C285.626 49.27 284.756 49.8713 283.832 50.3356C282.935 50.7729 281.929 50.9915 280.815 50.9915L280.817 50.9861ZM283.264 45.5768C283.834 45.5768 284.31 45.4538 284.691 45.2081C285.071 44.9349 285.438 44.5932 285.792 44.1835V41.396C284.133 41.6421 282.978 42.0109 282.326 42.5027C281.701 42.9948 281.388 43.5276 281.388 44.1014C281.388 45.085 282.013 45.5768 283.264 45.5768ZM306.595 50.9861C304.665 50.9861 302.925 50.5624 301.375 49.7154C299.825 48.8684 298.588 47.6523 297.664 46.0674C296.767 44.4555 296.318 42.5154 296.318 40.248C296.318 37.9802 296.822 36.0537 297.827 34.4673C298.86 32.855 300.206 31.6257 301.865 30.7783C303.523 29.9314 305.318 29.5077 307.247 29.5077C308.47 29.5077 309.572 29.6992 310.55 30.0815C311.556 30.4642 312.439 30.9834 313.2 31.6393L309.938 36.147C309.503 35.7647 309.109 35.5051 308.756 35.3685C308.405 35.2319 308.031 35.1626 307.655 35.1634C306.35 35.1634 305.331 35.6277 304.597 36.5571C303.862 37.4587 303.496 38.6883 303.496 40.2457C303.496 41.8035 303.876 43.0467 304.637 43.9757C305.398 44.8772 306.323 45.3284 307.41 45.3284C307.981 45.3284 308.538 45.2053 309.082 44.9593C309.639 44.6942 310.172 44.3785 310.672 44.0167L313.364 48.6057C312.358 49.5076 311.243 50.136 310.02 50.4912C308.797 50.8189 307.655 50.983 306.595 50.983V50.9861ZM324.837 50.9861C322.852 50.9861 321.058 50.5624 319.456 49.7154C317.879 48.8684 316.628 47.6523 315.704 46.0674C314.78 44.4555 314.318 42.5154 314.318 40.248C314.318 38.0348 314.78 36.135 315.704 34.5524C316.656 32.9401 317.879 31.6969 319.374 30.8225C320.869 29.948 322.446 29.5108 324.105 29.5108C326.117 29.5108 327.775 29.9619 329.078 30.8635C330.411 31.7379 331.389 32.9266 332.014 34.4294C332.667 35.9322 332.993 37.5991 332.993 39.4285C332.993 40.0294 332.952 40.6172 332.871 41.191C332.816 41.7373 332.762 42.1335 332.708 42.3796H321.086C321.412 43.6093 321.997 44.4698 322.84 44.9616C323.682 45.4263 324.675 45.6584 325.816 45.6584C327.121 45.6584 328.507 45.2487 329.974 44.4288L332.257 48.6076C331.17 49.3726 329.946 49.9603 328.587 50.3701C327.228 50.7798 325.978 50.9849 324.836 50.9849L324.837 50.9861ZM321.004 37.7879H327.04C327.04 36.9955 326.836 36.3126 326.428 35.7388C326.047 35.1375 325.327 34.8368 324.267 34.8368C323.506 34.8368 322.826 35.0694 322.228 35.5337C321.63 35.9984 321.222 36.7498 321.005 37.7879H321.004Z" fill="#E0E0E0"/>
<path d="M79.0164 54.3904C78.8097 53.6061 78.4748 52.862 78.0255 52.188C78.1218 51.8328 78.1949 51.4721 78.2442 51.108C78.5629 48.7958 77.7657 46.6777 76.2625 45.041C75.4484 44.1464 74.5757 43.556 73.6515 43.1934C74.2581 40.5844 74.5653 37.9157 74.5669 35.2343C74.5669 34.0109 74.4979 32.8122 74.3825 31.6312C74.322 31.0416 74.2493 30.4531 74.1642 29.8665C73.8994 28.1357 73.5067 26.4271 72.9894 24.7551C72.6502 23.6567 72.258 22.5752 71.8141 21.515C71.1486 19.9449 70.3714 18.425 69.4887 16.9686C68.9094 15.999 68.2789 15.061 67.5994 14.1591C67.2665 13.7037 66.9196 13.2591 66.5586 12.8258C65.4892 11.5191 64.3275 10.2925 63.0814 9.15498C62.668 8.77262 62.2426 8.40356 61.8057 8.04798C61.3757 7.68744 60.9361 7.33835 60.4877 7.00134C59.585 6.32615 58.6519 5.69236 57.6919 5.10268C52.3874 1.86409 46.1668 0.00683594 39.515 0.00683594C20.1564 0.00683594 4.46622 15.778 4.46622 35.2366C4.46572 37.9498 4.77845 40.6536 5.39816 43.2925C4.56669 43.6554 3.76948 44.2207 3.03078 45.0391C1.52797 46.6762 0.730378 48.7857 1.04949 51.0984C1.09761 51.466 1.17075 51.8297 1.26775 52.1872C0.818915 52.8616 0.484017 53.6061 0.276919 54.3904C-0.185009 56.1551 -0.0329574 57.7466 0.554076 59.1418C-0.0837695 60.9647 0.0755956 62.9055 0.906681 64.5937C1.51104 65.826 2.376 66.779 3.4419 67.6314C4.7095 68.644 6.29622 69.5049 8.2113 70.3303C10.4948 71.3092 13.281 72.2289 14.5474 72.5663C17.8217 73.4187 20.9605 73.9589 24.144 73.9848C28.6786 74.0273 32.5818 72.9556 35.3765 70.2134C36.7496 70.3825 38.1315 70.4672 39.5146 70.4668C40.9762 70.4637 42.4363 70.3709 43.8875 70.1898C46.676 72.9494 50.5932 74.0308 55.1432 73.9871C58.3247 73.962 61.4639 73.4218 64.7282 72.5682C66.0043 72.2308 68.7893 71.3111 71.0758 70.3326C72.9901 69.5053 74.5765 68.6448 75.8529 67.6334C76.9108 66.7813 77.7749 65.828 78.3797 64.5956C79.2192 62.9082 79.3705 60.9674 78.7408 59.1438C79.3224 57.7497 79.4733 56.1548 79.0118 54.3923L79.0164 54.3904ZM75.7679 59.0219C76.4111 60.2488 76.4523 61.6352 75.8845 62.926C75.0238 64.8831 72.8858 66.4242 68.7323 68.0799C66.1505 69.1095 63.7858 69.7673 63.7666 69.7735C60.3514 70.6638 57.2611 71.1157 54.5896 71.1157C50.1628 71.1157 46.8677 69.888 44.7775 67.4627C41.2441 68.0675 37.6369 68.088 34.0954 67.5235C32.0037 69.9085 28.7294 71.1157 24.3372 71.1157C21.663 71.1157 18.5747 70.6638 15.1602 69.7735C15.1391 69.7673 12.7759 69.1095 10.1945 68.0799C6.04101 66.425 3.90459 64.8846 3.04233 62.926C2.47454 61.6348 2.51573 60.2485 3.15896 59.0219C3.21863 58.9081 3.28215 58.7967 3.35028 58.6895C2.96457 58.1076 2.70627 57.4498 2.59156 56.7603C2.47693 56.0708 2.50884 55.3643 2.68518 54.6879C2.94078 53.7121 3.46892 52.9003 4.18568 52.3172C3.84054 51.7469 3.61404 51.1123 3.51973 50.4514C3.3134 49.0144 3.78765 47.5793 4.85547 46.408C5.68656 45.4976 6.86178 44.9965 8.16326 44.9965H8.1979C7.21669 41.8357 6.71935 38.5426 6.72243 35.2305C6.72243 17.1725 21.2886 2.53116 39.2537 2.53116C57.2227 2.53116 71.785 17.1725 71.785 35.2305C71.7873 38.5503 71.2865 41.8508 70.2995 45.0197C70.4565 45.0043 70.6105 44.9961 70.7614 44.9961C72.0625 44.9961 73.2381 45.4968 74.0692 46.4073C75.1363 47.5762 75.6117 49.0124 75.4049 50.4507C75.3106 51.1115 75.0843 51.7465 74.739 52.3168C75.4558 52.8995 75.9839 53.7113 76.2395 54.6875C76.4154 55.3639 76.4474 56.07 76.3327 56.7599C76.2179 57.4494 75.9596 58.1068 75.5743 58.6891C75.6425 58.7952 75.7067 58.9066 75.7656 59.0203L75.7679 59.0219Z" fill="#E0E0E0"/>
<path d="M75.5523 58.6853C75.9377 58.103 76.196 57.4456 76.3107 56.7561C76.4254 56.0662 76.3934 55.3601 76.2175 54.6837C75.9619 53.7079 75.4338 52.8961 74.717 52.313C75.0619 51.7427 75.2887 51.1081 75.383 50.4472C75.5893 49.0102 75.115 47.5751 74.0472 46.4038C73.2161 45.4934 72.0405 44.9923 70.7394 44.9923C70.5882 44.9923 70.4346 45.0001 70.2775 45.0159C71.2633 41.8478 71.7634 38.5465 71.7603 35.2266C71.7603 17.1687 57.1942 2.52734 39.229 2.52734C21.2639 2.52734 6.69775 17.1648 6.69775 35.2266C6.69463 38.5376 7.19201 41.8315 8.17322 44.9927H8.13858C6.83748 44.9927 5.66226 45.4938 4.83117 46.4042C3.76412 47.5731 3.28911 49.009 3.49543 50.4476C3.58963 51.1085 3.81616 51.743 4.16138 52.3134C3.44462 52.8965 2.91648 53.7083 2.66127 54.6845C2.48504 55.3608 2.45325 56.0674 2.56804 56.7573C2.68282 57.4468 2.94154 58.1045 3.32714 58.6865C3.25823 58.7937 3.1951 58.9051 3.13582 59.0188C2.49297 60.2458 2.4514 61.6322 3.01919 62.923C3.87953 64.8796 6.01787 66.4216 10.1714 68.0768C12.7532 69.1065 15.1178 69.7642 15.1371 69.7704C18.5523 70.6607 21.6426 71.1131 24.3141 71.1131C28.7062 71.1131 31.9821 69.9058 34.0723 67.5204C37.6122 68.085 41.2206 68.0645 44.7544 67.4597C46.8434 69.8849 50.1397 71.1131 54.5665 71.1131C57.2403 71.1131 60.329 70.6607 63.7435 69.7704C63.7642 69.7642 66.1278 69.1065 68.7092 68.0768C72.8627 66.4223 74.9991 64.8804 75.8614 62.923C76.4292 61.6318 76.388 60.2454 75.7447 59.0188C75.6858 58.9039 75.6212 58.7929 75.553 58.6865L75.5523 58.6853ZM32.593 63.785C32.4129 64.1019 32.22 64.4111 32.0145 64.7117C31.4736 65.5076 30.7623 66.1155 29.937 66.5678C28.3583 67.4326 26.3609 67.7352 24.3322 67.7352C21.1265 67.7352 17.8383 66.9811 15.9983 66.5005C15.9078 66.4769 4.70799 63.2967 6.12457 60.5882C6.36324 60.1332 6.75626 59.9513 7.25052 59.9513C9.24721 59.9513 12.8822 62.94 14.4451 62.94C14.7938 62.94 15.0402 62.7902 15.1406 62.4261C15.8066 60.0252 5.02057 59.0161 5.92902 55.5388C6.08954 54.9236 6.52414 54.674 7.13581 54.674C9.77534 54.6736 15.7007 59.3404 16.9402 59.3404C17.0353 59.3404 17.1034 59.3125 17.1404 59.2537L17.1566 59.227C17.7378 58.2616 17.4045 57.5597 13.4196 55.1062L13.0369 54.8721C8.65247 52.2043 5.57295 50.6005 7.32443 48.6852C7.52575 48.4638 7.81099 48.3659 8.15783 48.3659C8.56933 48.3659 9.06705 48.5045 9.61521 48.7362C11.931 49.7179 15.1391 52.395 16.4825 53.5612C16.8779 53.9071 17.1108 54.1184 17.1108 54.1184C17.1108 54.1184 18.8083 55.8929 19.835 55.8929C20.0713 55.8929 20.2715 55.7996 20.4074 55.5678C21.1357 54.3343 13.6478 48.6302 13.2244 46.2777C12.9384 44.6828 13.4253 43.8753 14.3265 43.8753C14.7545 43.8753 15.2773 44.0583 15.8543 44.4262C17.6443 45.5685 21.101 51.538 22.3675 53.8596C22.7917 54.638 23.5158 54.9669 24.1682 54.9669C25.4628 54.9669 26.4748 53.6734 24.2868 52.0298C20.9983 49.5561 22.1523 45.5139 23.7217 45.2663C23.7887 45.2558 23.8564 45.2504 23.9238 45.25C25.3512 45.25 25.9809 47.7225 25.9809 47.7225C25.9809 47.7225 27.8259 52.3811 30.9967 55.5655C33.8734 58.4555 34.2748 60.8277 32.5992 63.7839L32.593 63.785ZM42.844 64.3306L42.6796 64.3503L42.399 64.3828C42.2516 64.3979 42.1041 64.4126 41.9559 64.4266L41.8112 64.4397L41.6796 64.4509L41.4921 64.466C41.4232 64.4711 41.3543 64.4765 41.2854 64.4807L41.079 64.4947L41.0336 64.4974L40.8712 64.507L40.8023 64.5105L40.6098 64.5202L40.3862 64.5295L40.1829 64.5364L40.0474 64.5403H39.9789C39.9365 64.5403 39.8946 64.5426 39.8522 64.543H39.7849C39.7425 64.543 39.7006 64.543 39.6582 64.5453L39.4862 64.5473H39.2452C39.0562 64.5473 38.868 64.5453 38.6797 64.5419L38.5273 64.5384C38.4842 64.5384 38.4407 64.5361 38.3976 64.5349L38.2363 64.5299L38.0353 64.5221L37.8548 64.5144L37.8078 64.5125L37.6358 64.5032C37.588 64.5005 37.5403 64.4981 37.4929 64.495L37.3817 64.4885C37.242 64.4796 37.1022 64.4695 36.9625 64.4587L36.8162 64.4471L36.6315 64.4312L36.4155 64.4111C36.295 64.3999 36.1745 64.3875 36.054 64.3739H36.0483C37.8074 60.4273 36.9178 56.7437 33.3629 53.1762C31.0317 50.8361 29.4789 47.3801 29.1594 46.6217C28.5081 44.3756 26.7839 41.8779 23.9203 41.8779C23.6782 41.8783 23.4369 41.8977 23.1978 41.9356C21.9433 42.1337 20.847 42.8596 20.0648 43.9515C19.2198 42.8948 18.398 42.0548 17.6551 41.58C16.5349 40.8665 15.4174 40.5043 14.328 40.5043C12.9692 40.5043 11.7539 41.0654 10.9071 42.083L10.8859 42.1089L10.8382 41.9073L10.8362 41.8988C10.6752 41.2062 10.5399 40.5074 10.4305 39.8048C10.4305 39.7997 10.4305 39.7951 10.4282 39.7905L10.4043 39.6314C10.3914 39.5455 10.3789 39.4592 10.3666 39.3733C10.3566 39.3018 10.3466 39.2302 10.3374 39.159C10.3281 39.0878 10.3181 39.0162 10.3096 38.9446C10.3004 38.8727 10.2919 38.8011 10.2835 38.7295C10.2753 38.6614 10.2675 38.5933 10.26 38.5252L10.2577 38.5078C10.223 38.1936 10.1932 37.879 10.1684 37.5641L10.1549 37.3818C10.151 37.3319 10.1476 37.2816 10.1445 37.2309C10.1445 37.2193 10.143 37.2073 10.1422 37.1965L10.1295 36.9945C10.1249 36.9214 10.1214 36.8483 10.1176 36.7751C10.1137 36.7024 10.1099 36.6293 10.1068 36.5557L10.0991 36.3642L10.0968 36.3062L10.091 36.129L10.0868 35.9788C10.0868 35.9189 10.0841 35.8585 10.0829 35.7985L10.0798 35.6093C10.0791 35.5462 10.0798 35.4836 10.0783 35.4205C10.0764 35.357 10.0783 35.294 10.0783 35.2305C10.0783 19.0376 23.1393 5.9091 39.2529 5.9091C55.3665 5.9091 68.4275 19.0376 68.4275 35.2305V35.6093C68.4275 35.6724 68.4259 35.7358 68.4244 35.7985C68.4244 35.8511 68.4225 35.9026 68.4209 35.9552C68.4209 36.002 68.419 36.0485 68.4171 36.0937C68.4171 36.1529 68.4136 36.2118 68.4117 36.271V36.276C68.4067 36.4044 68.4013 36.5329 68.3959 36.6614L68.3936 36.7039L68.3836 36.8958L68.3744 37.0479C68.3528 37.4081 68.3247 37.7684 68.2904 38.1278V38.1329C68.2843 38.2002 68.2774 38.2679 68.27 38.3352C68.2531 38.4919 68.2358 38.6486 68.2185 38.8053L68.1988 38.9628L68.1746 39.1478C68.1661 39.2155 68.1569 39.2828 68.1472 39.3501C68.1369 39.4256 68.1257 39.5006 68.1149 39.5757L68.088 39.7529L68.0564 39.9541C68.0456 40.0211 68.0349 40.0876 68.0221 40.1546C68.0091 40.2211 67.999 40.2877 67.9875 40.3546C67.9644 40.4877 67.9405 40.6204 67.9147 40.7531C67.8635 41.0174 67.81 41.2809 67.7535 41.544C67.7392 41.6094 67.7246 41.6752 67.7096 41.7406C66.8885 40.9385 65.8014 40.5016 64.602 40.5016C63.5137 40.5016 62.3951 40.8634 61.2753 41.5773C60.532 42.0517 59.7109 42.8921 58.8652 43.9488C58.0818 42.8565 56.9855 42.131 55.7325 41.9325C55.4935 41.895 55.2518 41.8756 55.0096 41.8752C52.1461 41.8752 50.4212 44.3721 49.7706 46.619C49.4476 47.3777 47.8963 50.8326 45.5632 53.1774C42.011 56.7364 41.1133 60.4052 42.8463 64.3325L42.844 64.3306ZM72.9617 56.4334L72.9501 56.4678C72.9421 56.4899 72.934 56.5119 72.9251 56.5336C72.9113 56.5665 72.8966 56.5986 72.8812 56.6307C72.8439 56.7073 72.8016 56.7816 72.755 56.8528C72.6907 56.9492 72.6202 57.0413 72.5436 57.1279C72.5259 57.1481 72.509 57.1678 72.489 57.1875C72.462 57.2173 72.4332 57.2463 72.4047 57.2754C71.8862 57.7919 71.0963 58.2442 70.2032 58.6598C70.102 58.7058 69.9996 58.7519 69.8956 58.7979L69.7925 58.844C69.7236 58.8745 69.6551 58.9051 69.5827 58.9349C69.5122 58.9651 69.4414 58.9949 69.3706 59.0243L69.1558 59.1137C68.6534 59.3214 68.1388 59.5191 67.6364 59.7149L67.422 59.7985L67.2095 59.8821C67.0686 59.9374 66.9293 59.9927 66.7919 60.0481L66.5875 60.1309L66.3869 60.2137L66.288 60.2551C66.2225 60.2829 66.1579 60.31 66.094 60.3379C64.6166 60.9748 63.5541 61.6229 63.7774 62.4273C63.7836 62.4501 63.7905 62.4718 63.7982 62.4927C63.8182 62.5523 63.8455 62.6088 63.8794 62.6614C63.8994 62.6931 63.9225 62.7229 63.9483 62.75C64.2109 63.0239 64.6886 62.9806 65.291 62.7632C65.3399 62.7454 65.3899 62.7264 65.4404 62.7063C65.475 62.6931 65.5093 62.6792 65.5439 62.6653L65.5959 62.6432C65.7337 62.5844 65.8796 62.519 66.0289 62.4474C66.0663 62.43 66.104 62.413 66.1417 62.3929C66.8781 62.0311 67.713 61.5432 68.5414 61.0994C68.6685 61.0301 68.7959 60.9639 68.9225 60.8982C69.1296 60.7902 69.3386 60.6861 69.5496 60.5867C70.3341 60.216 71.0713 59.9529 71.6644 59.9529C71.9424 59.9529 72.1883 60.0102 72.3927 60.1417L72.427 60.1645C72.5306 60.2381 72.6206 60.3282 72.6942 60.4319C72.7111 60.4563 72.7288 60.4814 72.7438 60.5074C72.76 60.5341 72.7754 60.5615 72.79 60.5894C73.0829 61.1481 72.8377 61.7273 72.2642 62.295C71.7133 62.8398 70.8565 63.3741 69.8822 63.869C69.8102 63.9058 69.7374 63.9425 69.6643 63.9781C66.7653 65.409 62.9702 66.4866 62.9163 66.5001C61.9047 66.7636 60.4581 67.1099 58.8282 67.3688L58.5869 67.4063L58.5476 67.4121C58.1781 67.4678 57.8074 67.517 57.4359 67.5595L57.4016 67.563C56.7261 67.6404 56.0332 67.6965 55.3391 67.7201H55.3288C55.0793 67.7294 54.8303 67.7336 54.5808 67.7336H54.2936C53.9133 67.7282 53.5334 67.7112 53.1542 67.6818C53.1454 67.6818 53.1361 67.6818 53.1269 67.6798C52.9914 67.6694 52.8555 67.6566 52.7204 67.6415C52.4879 67.6164 52.2558 67.5854 52.0244 67.5491C51.9343 67.534 51.8381 67.5181 51.7453 67.5019C51.703 67.4941 51.661 67.4864 51.6191 67.4779L51.6091 67.4759C51.4755 67.4504 51.3427 67.4222 51.2103 67.3916C51.1337 67.3742 51.0567 67.3568 50.9809 67.3363L50.9354 67.3243C50.8977 67.315 50.8608 67.3049 50.8238 67.2949L50.8034 67.2894L50.6845 67.255C50.6413 67.2426 50.5986 67.2299 50.5555 67.2171L50.5401 67.2124L50.4281 67.178C50.3857 67.1648 50.3438 67.1509 50.3018 67.1374C50.2672 67.1258 50.2329 67.1138 50.1983 67.1025L50.1224 67.0759C50.0493 67.0503 49.9769 67.0232 49.9046 66.9954L49.836 66.9687L49.7795 66.9458C49.6705 66.9017 49.562 66.8557 49.4546 66.8073L49.383 66.7729L49.371 66.7675C49.3456 66.7555 49.3206 66.7435 49.2952 66.7327C49.2455 66.7087 49.1963 66.6839 49.1474 66.6587L49.1328 66.6514L49.0619 66.6139C48.9361 66.5481 48.8125 66.4777 48.6916 66.4026L48.6254 66.362C48.5911 66.3411 48.56 66.3198 48.5272 66.2985L48.441 66.2409C48.4098 66.22 48.3787 66.1987 48.3483 66.1766L48.2928 66.1372C48.2343 66.095 48.177 66.052 48.1204 66.0075C48.0903 65.9843 48.0607 65.9603 48.0311 65.9383C47.9652 65.8853 47.901 65.8307 47.8374 65.7746L47.8347 65.7723C47.7728 65.7185 47.7123 65.6628 47.6534 65.6059L47.6504 65.602C47.6196 65.5726 47.5895 65.5432 47.5595 65.5127C47.5299 65.4821 47.4998 65.4519 47.471 65.4213C47.4417 65.3904 47.4125 65.3591 47.384 65.3269C47.3563 65.2968 47.3293 65.2662 47.3024 65.2352L47.2931 65.2248C47.1542 65.0627 47.0241 64.8928 46.9036 64.716L46.8558 64.6452C46.8243 64.5984 46.7931 64.5512 46.7623 64.5039L46.6715 64.3635C46.6268 64.295 46.5833 64.2257 46.541 64.1561C46.5105 64.1066 46.4805 64.057 46.4509 64.0071C46.4259 63.9646 46.4008 63.9224 46.377 63.8806C46.3635 63.8578 46.3508 63.8346 46.3381 63.8113C46.3254 63.7873 46.3104 63.763 46.2969 63.7386L46.2753 63.7003C46.268 63.6875 46.2657 63.6837 46.2619 63.6751C46.2357 63.6291 46.2103 63.5823 46.1857 63.5347C46.1745 63.5142 46.1633 63.4933 46.1514 63.4728L46.1168 63.4062L46.0825 63.3401L46.0163 63.2058C46.0055 63.1837 45.9951 63.1617 45.9847 63.1396C45.962 63.092 45.9405 63.0452 45.9189 62.9984C45.9104 62.9794 45.9016 62.9605 45.8939 62.9415C45.8642 62.8769 45.8361 62.8115 45.8096 62.7453C45.7915 62.7016 45.7749 62.6583 45.7572 62.615C45.7076 62.4873 45.661 62.3584 45.6183 62.228C45.6056 62.1893 45.5928 62.151 45.5817 62.1123C45.554 62.0245 45.5289 61.9359 45.5066 61.8465C45.4793 61.7424 45.455 61.6372 45.4346 61.5316C45.4216 61.4693 45.41 61.4066 45.4004 61.3435C45.39 61.2812 45.3811 61.2189 45.3738 61.157C45.358 61.0336 45.3469 60.9098 45.3403 60.7856C45.3403 60.7651 45.3384 60.7442 45.338 60.7237C45.3361 60.6826 45.3349 60.6416 45.3346 60.6006C45.313 58.9477 46.1456 57.3578 47.9252 55.5705C51.0948 52.3873 52.941 47.7275 52.941 47.7275C52.941 47.7275 52.9906 47.5321 53.0942 47.2512C53.1288 47.158 53.165 47.0651 53.2031 46.9734C53.2466 46.8697 53.2932 46.7672 53.3432 46.6666L53.3579 46.6371C53.4221 46.5087 53.4918 46.3837 53.5676 46.2618C53.585 46.2336 53.6019 46.2053 53.6219 46.1775C53.6781 46.0931 53.7378 46.0115 53.8005 45.9322C53.849 45.8714 53.9006 45.8126 53.9549 45.7569C54.1389 45.5665 54.3487 45.411 54.5862 45.3278L54.6162 45.3181C54.6362 45.3115 54.6559 45.3053 54.6763 45.2995C54.7001 45.2934 54.724 45.2875 54.7479 45.2825L54.7587 45.2806C54.8091 45.2705 54.8595 45.2636 54.9107 45.2601H54.9153C54.9419 45.2601 54.9684 45.2574 54.9958 45.2574C55.0639 45.2578 55.1317 45.2632 55.199 45.2736C55.4846 45.3189 55.7568 45.4899 55.9908 45.7538L56.0224 45.7909C56.0986 45.8807 56.1679 45.9767 56.2295 46.0773C56.2757 46.1519 56.3192 46.2305 56.3604 46.3129C56.3769 46.3477 56.3927 46.3795 56.4085 46.4135C56.4162 46.4309 56.4239 46.4479 56.4312 46.4657C56.4466 46.5002 56.4609 46.535 56.4751 46.5714C56.5555 46.7788 56.6179 46.9927 56.6618 47.211C56.7084 47.4466 56.7353 47.6857 56.743 47.926C56.7457 48.0316 56.7457 48.1384 56.743 48.2468C56.7411 48.2878 56.7392 48.3292 56.7361 48.3706C56.7045 48.8306 56.6048 49.2834 56.4401 49.714C56.4235 49.7566 56.4054 49.7999 56.3885 49.8432C56.3057 50.0421 56.2095 50.2348 56.1009 50.4205C56.039 50.5266 55.972 50.6318 55.9004 50.7363L55.8565 50.7989C55.6867 51.0373 55.4973 51.2609 55.2903 51.4676C55.0862 51.673 54.8676 51.863 54.6362 52.0367C54.4041 52.2089 54.1866 52.4001 53.9857 52.6078C53.4071 53.2184 53.2724 53.7566 53.4025 54.1648C53.4179 54.2109 53.436 54.2561 53.4568 54.2999C53.5049 54.3947 53.5673 54.4817 53.6419 54.5576L53.6623 54.5781C53.6835 54.5986 53.7058 54.6183 53.7286 54.6373L53.7517 54.6562C53.8078 54.6996 53.8671 54.7383 53.9291 54.7719C53.9468 54.7816 53.9634 54.7913 53.9838 54.8006C54.0688 54.8431 54.1578 54.8772 54.2494 54.9031L54.2748 54.9097L54.309 54.919L54.3391 54.9263L54.371 54.9333L54.403 54.9399L54.4334 54.9449C54.4561 54.9491 54.4792 54.9526 54.5019 54.9557L54.5242 54.9588L54.5639 54.9631L54.5885 54.9654L54.6293 54.9685H54.6528L54.6951 54.9704H54.8287L54.8668 54.9685L54.9107 54.9658L54.9642 54.9608L55.0143 54.9546C55.0254 54.9546 55.037 54.9515 55.0485 54.9495C55.2248 54.9236 55.3965 54.8737 55.5589 54.8009C55.5936 54.7862 55.6278 54.77 55.6594 54.753C55.7272 54.7189 55.793 54.6806 55.8561 54.6384C55.9443 54.5804 56.0274 54.515 56.1056 54.4438L56.1598 54.392C56.1683 54.3835 56.1772 54.3753 56.1852 54.3664C56.2384 54.313 56.2884 54.2565 56.335 54.1973C56.4174 54.0929 56.4905 53.9818 56.554 53.865C57.3073 52.4883 58.0969 51.1317 58.9218 49.7984L59.035 49.6161L59.1493 49.4335C59.2066 49.3414 59.264 49.2501 59.3213 49.1599L59.3795 49.069L59.4953 48.8875C59.6509 48.6457 59.8068 48.4066 59.9638 48.1698L60.0812 47.9933C60.3168 47.6428 60.552 47.3015 60.7845 46.9769L60.9008 46.8167C61.1537 46.4654 61.4173 46.1221 61.691 45.7871L61.8 45.6563C61.8177 45.6342 61.8342 45.613 61.8539 45.5917L61.9605 45.4675C61.9782 45.447 61.9951 45.4268 62.0136 45.4071L62.1168 45.2899L62.1687 45.2334C62.2188 45.1788 62.2696 45.125 62.3212 45.0716C62.3558 45.0372 62.3878 45.0024 62.4213 44.9703C62.6164 44.7694 62.8316 44.5895 63.0637 44.4336L63.1172 44.3992L63.1715 44.3643C63.2062 44.3427 63.2412 44.3218 63.277 44.302C64.187 43.7832 64.9407 43.7449 65.3741 44.1805C65.6371 44.4448 65.7822 44.8824 65.7745 45.4911C65.7745 45.5182 65.7745 45.5448 65.7722 45.5727V45.6029C65.7722 45.6304 65.7699 45.6586 65.7679 45.6869C65.7679 45.7213 65.7637 45.7561 65.7602 45.7906C65.7568 45.8254 65.7552 45.8517 65.7518 45.8823C65.7518 45.8912 65.7498 45.9001 65.7487 45.909C65.746 45.936 65.7425 45.9635 65.7391 45.9906C65.7391 45.9991 65.7391 46.0072 65.7356 46.0157C65.7318 46.0525 65.7264 46.0893 65.7198 46.1256C65.7156 46.1593 65.7102 46.193 65.7036 46.2266C65.701 46.246 65.6971 46.2649 65.694 46.2843C65.684 46.3392 65.6709 46.3938 65.6551 46.4472C65.6255 46.547 65.5893 46.6449 65.5466 46.7401C65.5281 46.7815 65.5085 46.8229 65.4885 46.8635C65.4469 46.9475 65.3999 47.0334 65.3484 47.1224C65.3226 47.1661 65.296 47.2114 65.2675 47.2566L65.2244 47.3255C65.1805 47.3948 65.1347 47.4648 65.087 47.5356C65.0392 47.6064 64.988 47.6788 64.933 47.7519C64.8618 47.8494 64.7867 47.9488 64.7074 48.0494L64.6474 48.1257C64.4776 48.3381 64.3036 48.547 64.1258 48.7525L63.9845 48.9131L63.9125 48.9943C63.8144 49.1046 63.7158 49.2141 63.6165 49.3228L63.5403 49.4056C63.4899 49.4606 63.4371 49.5163 63.3867 49.5716C63.3351 49.6277 63.2828 49.6834 63.2304 49.7392L63.0718 49.9071L62.9113 50.0754C62.8578 50.1315 62.8039 50.1884 62.7496 50.2445L62.4228 50.583C60.8619 52.1923 59.217 53.7961 58.6604 54.7967C58.6235 54.8621 58.59 54.929 58.5596 54.9975C58.4806 55.1794 58.4475 55.3349 58.4699 55.4607C58.4772 55.5021 58.4918 55.5419 58.513 55.5779C58.5445 55.6325 58.5826 55.6828 58.6265 55.7276C58.6469 55.7478 58.6681 55.7667 58.6912 55.7837C58.8055 55.8658 58.9441 55.9079 59.0846 55.9037H59.1285L59.1735 55.9006L59.219 55.8952L59.2563 55.8898C59.2613 55.8894 59.2663 55.8882 59.2713 55.8871L59.3056 55.8805L59.3148 55.8782L59.3525 55.87L59.4064 55.8561L59.4545 55.8418C59.4861 55.8321 59.5177 55.8213 59.55 55.8093C59.6197 55.7845 59.6878 55.7559 59.7544 55.7238C59.7713 55.7156 59.7887 55.7079 59.8052 55.699L59.8564 55.6735C59.9234 55.6394 59.99 55.6027 60.057 55.5628C60.1105 55.5311 60.1636 55.4986 60.2167 55.4641L60.2683 55.4297C60.2852 55.4189 60.3026 55.4076 60.3195 55.3949L60.3707 55.3604L60.3976 55.3415L60.4715 55.2896C60.5405 55.2417 60.6047 55.1925 60.6702 55.1426L60.676 55.1383L60.7791 55.0579C60.9204 54.9457 61.0547 54.8327 61.176 54.7263L61.2568 54.6547L61.2645 54.6477L61.3065 54.6102C61.4058 54.5208 61.4943 54.4372 61.5682 54.368L61.5983 54.3386L61.671 54.2693L61.7145 54.2267L61.7295 54.2113L61.7338 54.207C61.7707 54.1699 61.7707 54.1699 61.8077 54.1323L61.8108 54.1292L61.8246 54.1169C61.8288 54.1122 61.8346 54.1076 61.8412 54.1018L61.8466 54.0967L61.8612 54.0836L61.9393 54.0143L61.9832 53.9745C62.0048 53.9559 62.0282 53.9346 62.0521 53.9118L62.1048 53.8654C62.1141 53.8576 62.1233 53.8487 62.1329 53.8402L62.188 53.7918L62.2692 53.7206L62.3119 53.6831C62.4794 53.5365 62.6834 53.3596 62.9171 53.1604L63.0129 53.0791L63.1715 52.9456L63.3332 52.8094C63.5449 52.633 63.7728 52.4453 64.0138 52.2503L64.172 52.1226C64.3067 52.0151 64.4453 51.9048 64.5854 51.7941C64.6416 51.7496 64.699 51.7051 64.7575 51.661C64.9011 51.5496 65.0454 51.4385 65.1901 51.329C65.5204 51.0783 65.8611 50.8272 66.2056 50.5823L66.3538 50.479C66.457 50.407 66.5601 50.3354 66.6637 50.2654L66.7572 50.2015C66.9424 50.0762 67.1291 49.9535 67.3173 49.8336L67.4109 49.7744L67.5036 49.7163C67.5964 49.6587 67.6892 49.6014 67.7808 49.5461L67.8728 49.4911L68.0572 49.3832C68.1176 49.348 68.1777 49.3135 68.2377 49.2795L68.2739 49.259L68.4171 49.1804C68.4764 49.1479 68.536 49.1166 68.5949 49.086L68.6835 49.0404L68.7689 48.9966C68.9645 48.898 69.1635 48.8067 69.366 48.7231C69.3937 48.7115 69.421 48.7002 69.4483 48.6883C69.5026 48.6654 69.5565 48.6445 69.61 48.626C69.6635 48.6078 69.7163 48.5888 69.7682 48.5702C69.8156 48.5544 69.8614 48.5397 69.906 48.5257L69.9211 48.5211C69.9449 48.5138 69.9688 48.5068 69.9926 48.5006L69.9996 48.4987C70.0481 48.4847 70.0966 48.472 70.1455 48.4604H70.1493C70.2213 48.4429 70.2914 48.4282 70.3599 48.4166C70.3834 48.4128 70.4065 48.4089 70.4288 48.4058C70.4954 48.3957 70.5624 48.3888 70.6293 48.3841C70.6717 48.381 70.7144 48.3799 70.7568 48.3799H70.7891C70.8322 48.3799 70.8738 48.3826 70.915 48.3868C70.9338 48.3868 70.9527 48.3903 70.9712 48.393H70.9789C70.9973 48.395 71.0162 48.3981 71.0343 48.4019C71.0524 48.4058 71.0709 48.4085 71.0886 48.4128H71.0947C71.1124 48.4166 71.129 48.4217 71.1475 48.4267C71.2945 48.4665 71.4296 48.5416 71.5416 48.6453L71.5517 48.6554L71.5713 48.6747L71.5905 48.6952C71.7449 48.8585 71.8727 49.0454 71.9689 49.2489L71.9839 49.2834C72.0167 49.3607 72.0425 49.4408 72.0605 49.5229C72.1106 49.7515 72.0971 49.9899 72.0213 50.2112C71.9886 50.3075 71.9485 50.4012 71.9012 50.491L71.8696 50.5482C71.7495 50.7506 71.6079 50.939 71.4466 51.11L71.4119 51.1468C71.3361 51.2277 71.2572 51.3062 71.176 51.3817C71.1502 51.406 71.1236 51.4304 71.0967 51.4548L71.0559 51.4919C70.9712 51.5674 70.8846 51.6409 70.7968 51.7129C70.7814 51.7253 70.7656 51.7376 70.7506 51.7508C70.6894 51.8003 70.6263 51.8506 70.5608 51.9009C70.3352 52.0743 70.1054 52.2414 69.8714 52.4028C69.7336 52.4976 69.5912 52.5931 69.4441 52.6903C69.17 52.8709 68.894 53.0478 68.6153 53.2211C68.5349 53.271 68.454 53.3217 68.3717 53.372C67.6145 53.8402 66.7749 54.3409 65.8796 54.8853L65.6478 55.0269C65.3942 55.1825 65.1547 55.331 64.9295 55.4723L64.816 55.5442L64.6012 55.6828C64.5161 55.7369 64.4333 55.7903 64.3529 55.8429C64.2921 55.882 64.2328 55.9207 64.1747 55.959L64.06 56.0349C64.0041 56.0716 63.9487 56.1084 63.8933 56.1459L63.8394 56.1803C63.7824 56.2187 63.727 56.2562 63.6731 56.2933L63.5849 56.3537L63.4814 56.426L63.3859 56.493C63.235 56.5994 63.0861 56.7081 62.9382 56.8188L62.8867 56.8582C62.8285 56.9024 62.7723 56.9465 62.7181 56.9894L62.6472 57.0463C62.5279 57.1426 62.4197 57.2351 62.3219 57.3233L62.2742 57.3674C62.2469 57.3926 62.2199 57.4177 62.1945 57.4425C62.1764 57.4595 62.1599 57.4769 62.1418 57.494L62.1168 57.5187C62.0617 57.5741 62.0082 57.6309 61.9563 57.6894L61.9309 57.7188C61.8743 57.7845 61.825 57.8476 61.7815 57.9091L61.7622 57.937C61.7122 58.0105 61.6679 58.0883 61.6302 58.1692L61.6171 58.1974L61.609 58.2171L61.6025 58.2342L61.5936 58.2578C61.591 58.2659 61.5856 58.2802 61.5825 58.2926C61.5667 58.3386 61.5552 58.3862 61.5475 58.4346L61.5436 58.4605L61.5405 58.4841L61.5386 58.5069V58.6284C61.5386 58.6385 61.5386 58.6489 61.5409 58.6594C61.5413 58.6656 61.5421 58.6718 61.5428 58.678C61.5428 58.688 61.5455 58.6981 61.5467 58.7085L61.554 58.7511V58.753C61.5567 58.7666 61.5594 58.7801 61.5628 58.7937C61.5663 58.8072 61.5698 58.8223 61.574 58.8366C61.5863 58.8803 61.6013 58.9237 61.6187 58.9658C61.6187 58.9689 61.6214 58.9724 61.6225 58.9755C61.6271 58.986 61.6314 58.9968 61.6364 59.0072C61.6552 59.0513 61.6764 59.0943 61.6995 59.1365L61.7238 59.1802L61.7492 59.2243L61.7757 59.2684C61.7803 59.2758 61.7853 59.2823 61.7911 59.2889L61.8 59.2982L61.8092 59.3067L61.8196 59.3148C61.8265 59.3199 61.8339 59.3241 61.8415 59.3284C61.8493 59.3319 61.8577 59.3357 61.8662 59.3388C61.8754 59.3419 61.8847 59.3446 61.8939 59.347C62.116 59.3973 62.5726 59.2123 63.1788 58.8904L63.2878 58.8324L63.4722 58.7314L63.5626 58.6811C63.6265 58.6462 63.6923 58.6075 63.7589 58.5692L63.881 58.5C64.6828 58.036 65.6409 57.4398 66.631 56.8579C66.7234 56.8033 66.8165 56.7491 66.9097 56.695L67.0967 56.575C67.1903 56.5208 67.2834 56.4674 67.377 56.4148C67.775 56.1873 68.1784 55.9687 68.5861 55.7594L68.7689 55.6661C68.8906 55.6058 69.0111 55.5469 69.13 55.4897C69.3606 55.3798 69.5935 55.2757 69.8287 55.177L69.9576 55.1244L69.9734 55.1182C70.6563 54.8462 71.2757 54.6779 71.7768 54.6779C71.8854 54.6771 71.9936 54.686 72.1006 54.7046H72.1037C72.1383 54.7108 72.1695 54.7178 72.201 54.7259H72.2068C72.253 54.7371 72.2984 54.7514 72.3423 54.7692C72.3773 54.782 72.4112 54.7971 72.4439 54.8149C72.5875 54.888 72.7103 54.996 72.8019 55.1291C72.8096 55.1403 72.817 55.1519 72.8239 55.1639C72.8578 55.2157 72.887 55.2703 72.9109 55.3276C72.9251 55.3604 72.9382 55.3945 72.9505 55.4312C72.9628 55.4684 72.9736 55.504 72.9848 55.5423C73.0664 55.8356 73.0583 56.1459 72.9617 56.4346V56.4334Z" fill="#E0E0E0"/>
<path fill-rule="evenodd" clip-rule="evenodd" d="M48.7216 27.2359C49.1762 27.3977 49.5146 27.8902 49.8364 28.3584C50.2714 28.9918 50.6763 29.5807 51.2976 29.2487C52.0309 28.8572 52.6318 28.2559 53.0249 27.5207C53.4179 26.7855 53.5849 25.9502 53.5053 25.1194C53.446 24.4984 53.2504 23.8983 52.9325 23.3624C52.6145 22.8265 52.1822 22.368 51.6672 22.0201C51.1517 21.6724 50.5659 21.444 49.9523 21.3511C49.3383 21.2583 48.7116 21.3035 48.1173 21.4835C47.3224 21.7241 46.6164 22.1962 46.0882 22.8401C45.5605 23.4839 45.2341 24.2705 45.1505 25.1005C45.0674 25.9309 45.231 26.7674 45.6205 27.5041C45.9085 28.0485 46.5475 27.792 47.2219 27.5207C47.7508 27.3083 48.3013 27.087 48.7216 27.2359ZM28.9434 27.2363C28.4888 27.398 28.15 27.8906 27.8282 28.3588C27.3932 28.9918 26.9883 29.5811 26.367 29.2491C25.8192 28.9562 25.3431 28.5445 24.9724 28.0442C24.6017 27.5439 24.3461 26.9674 24.2237 26.3557C24.1012 25.7443 24.1151 25.1129 24.2645 24.5077C24.4142 23.9022 24.6952 23.3376 25.0875 22.8544C25.4805 22.3715 25.9747 21.9822 26.5352 21.7141C27.0957 21.4459 27.7085 21.3066 28.329 21.3051C28.9496 21.3037 29.5628 21.4407 30.1244 21.7059C30.686 21.9713 31.1822 22.3587 31.5772 22.8396C32.1053 23.4835 32.4317 24.2701 32.5153 25.1005C32.5984 25.9308 32.4348 26.7674 32.0449 27.5041C31.7562 28.0485 31.1172 27.7916 30.4427 27.5203C29.9142 27.3079 29.3638 27.087 28.9434 27.2363ZM45.6613 45.3252C48.7959 42.8427 49.9457 38.79 49.9457 36.2943C49.9457 34.321 48.6246 34.942 46.5101 35.994L46.3912 36.0536C44.4499 37.0198 41.8643 38.3059 39.0311 38.3059C36.1945 38.3059 33.6112 37.0194 31.6711 36.0532C29.4881 34.9664 28.1189 34.2846 28.1189 36.2947C28.1189 38.8697 29.3437 43.0969 32.7073 45.5539C33.1508 44.6485 33.7752 43.8448 34.542 43.1932C35.3084 42.5416 36.2007 42.0564 37.1626 41.7674C37.4983 41.6668 37.844 42.2476 38.1981 42.8419C38.5396 43.4157 38.8883 44.0023 39.2436 44.0023C39.6216 44.0023 39.9935 43.4242 40.3565 42.8597C40.7357 42.27 41.1052 41.695 41.4628 41.81C43.2628 42.3907 44.7683 43.6502 45.6625 45.324L45.6613 45.3252Z" fill="#E0E0E0"/>
<path d="M45.6422 45.3361C44.0097 46.6293 41.8398 47.4964 39.0135 47.4964C36.3586 47.4964 34.2826 46.731 32.689 45.566C33.1328 44.6609 33.7576 43.8573 34.524 43.2061C35.2904 42.5545 36.1827 42.0689 37.1443 41.7795C37.8037 41.5818 38.5019 44.0144 39.2249 44.0144C39.999 44.0144 40.7446 41.5973 41.4444 41.8221C43.2436 42.4032 44.7487 43.6627 45.6441 45.3361H45.6422Z" fill="#E0E0E0"/>
<path fill-rule="evenodd" clip-rule="evenodd" d="M21.4412 30.7493C21.1433 30.9509 20.8087 31.0913 20.4569 31.1625C20.1049 31.2337 19.7425 31.2345 19.3902 31.1648C19.038 31.0948 18.7027 30.9559 18.404 30.7559C18.1053 30.5554 17.8489 30.2981 17.6495 29.9979C17.45 29.698 17.3114 29.361 17.2415 29.0073C17.1717 28.6533 17.1721 28.2888 17.2427 27.9348C17.3132 27.5811 17.4526 27.2449 17.6526 26.945C17.8528 26.6454 18.1099 26.3886 18.409 26.1889C19.0107 25.7877 19.7463 25.6422 20.4542 25.785C21.1621 25.9278 21.7853 26.3468 22.1864 26.95C22.5876 27.5536 22.7346 28.2923 22.5949 29.0042C22.4551 29.7166 22.0402 30.3442 21.4412 30.7493ZM60.4741 30.7493C60.1762 30.9509 59.8417 31.0913 59.4898 31.1625C59.138 31.2337 58.7754 31.2345 58.4232 31.1648C58.0709 31.0948 57.7357 30.9559 57.4369 30.7559C57.1382 30.5554 56.8819 30.2981 56.6825 29.9979C56.4827 29.698 56.3441 29.361 56.2744 29.0073C56.2048 28.6533 56.2051 28.2888 56.2756 27.9348C56.346 27.5811 56.4854 27.2449 56.6855 26.945C56.8857 26.6454 57.1428 26.3886 57.4419 26.1889C58.0436 25.7877 58.7792 25.6422 59.4871 25.785C60.195 25.9278 60.8179 26.3468 61.2194 26.95C61.6205 27.5536 61.7675 28.2923 61.6278 29.0042C61.488 29.7166 61.0731 30.3442 60.4741 30.7493Z" fill="#E0E0E0"/>
</g>
<defs>
<clipPath id="clip0_191_1480">
<rect width="333" height="74" fill="white"/>
</clipPath>
</defs>
</svg>
