<svg width="322" height="48" viewBox="0 0 322 48" fill="none" xmlns="http://www.w3.org/2000/svg">
<g clip-path="url(#clip0_191_1470)">
<path d="M17.114 21.7424C20.4369 18.5647 25.5872 13.2128 30.4053 7.69361C32.399 5.35215 33.562 3.67968 33.562 2.67619C33.562 2.0072 33.3958 1.67271 31.9005 1.33821C31.4021 1.33821 30.9037 1.17096 30.9037 0.669223C30.9037 0.334728 31.236 0.16748 31.9005 0.16748C34.7249 0.16748 34.8911 0.334728 38.38 0.334728C41.869 0.334728 46.5209 0.16748 47.1855 0.16748C48.1823 0.16748 48.5146 0.334728 48.5146 0.669223C48.5146 1.00372 48.1823 1.17096 47.3516 1.33821C46.3548 1.50546 45.8563 1.50546 45.1918 1.67271C42.2013 2.3417 40.2076 4.18142 37.217 7.02462C34.3927 9.70058 27.4148 17.0595 25.7533 18.7319C28.0793 22.5786 38.38 34.9549 42.3674 39.3034C46.0225 43.1501 47.6839 44.488 48.8469 44.9898C50.0099 45.4915 50.6744 45.6588 51.6713 45.826C52.502 45.826 53.0004 45.9933 53.0004 46.495C53.0004 46.9967 52.502 46.9967 51.8374 46.9967H45.8563C37.7155 46.9967 34.8911 46.1605 31.7344 42.6483C28.4116 38.9689 21.5998 30.272 17.114 23.4149V28.934C17.114 33.7842 17.114 39.4706 17.4463 41.9793C17.6125 43.4846 17.9447 45.157 20.1046 45.3243C20.9353 45.4915 21.9321 45.4915 22.7628 45.4915C23.4274 45.4915 23.7597 45.826 23.7597 46.1605C23.7597 46.495 23.5935 46.8295 22.5967 46.8295C18.6093 46.8295 11.9637 46.6623 11.4653 46.6623C11.133 46.6623 4.15509 46.8295 2.1614 46.8295C1.3307 46.8295 0.998421 46.6623 0.998421 46.1605C0.998421 45.6588 1.49684 45.4915 2.1614 45.4915C2.82597 45.4915 3.32439 45.4915 3.98895 45.3243C5.81649 44.9898 6.14878 43.4846 6.31492 41.8121C6.48106 39.1361 6.6472 34.7877 6.6472 28.934V18.063C6.6472 8.52985 6.6472 6.69013 6.48106 4.68316C6.31492 3.01069 5.65035 1.83995 4.15509 1.50546C3.15825 1.33821 2.49369 1.33821 1.82912 1.33821C0.998421 1.33821 0.5 1.17096 0.5 0.669223C0.5 0.334728 0.998421 0.16748 2.1614 0.16748C4.81965 0.16748 11.133 0.334728 11.4653 0.334728C11.9637 0.334728 19.44 0.16748 21.766 0.16748C22.7628 0.16748 23.0951 0.334728 23.0951 0.669223C23.0951 1.17096 22.7628 1.33821 21.9321 1.33821C21.4337 1.33821 20.9353 1.33821 20.1046 1.50546C17.9447 1.83995 17.6125 3.17793 17.4463 5.1849C17.2802 7.19187 17.2802 8.3626 17.2802 18.063L17.114 21.7424Z" fill="#E0E0E0"/>
<path d="M59.8121 32.9477C59.8121 30.1045 59.1475 29.101 58.1507 27.2613C55.6586 22.9129 50.6743 14.7178 48.8468 12.0418C46.5208 8.52962 46.0224 8.19512 44.1949 7.86063C44.0287 7.86063 43.3642 7.69338 43.0319 7.69338C42.3673 7.52613 42.2012 7.35889 42.2012 7.02439C42.2012 6.6899 42.6996 6.3554 43.3642 6.3554C46.0224 6.3554 50.0098 6.52265 52.1696 6.52265C53.0003 6.52265 56.9877 6.3554 60.6428 6.3554C61.3073 6.3554 61.6396 6.52265 61.6396 6.85714C61.6396 7.19164 61.4735 7.35888 60.6428 7.52613C58.9814 7.69338 58.6491 8.19512 58.6491 8.52962C58.6491 8.86411 58.8152 9.36585 59.1475 10.0348C59.9782 11.5401 66.6238 23.2474 67.6207 24.7526C71.608 17.561 73.7679 13.547 74.7647 11.3728C75.2631 10.2021 75.7615 9.5331 75.7615 8.86411C75.7615 8.19512 75.5954 7.69338 73.6017 7.35888C73.1033 7.35888 72.771 7.19164 72.771 6.6899C72.771 6.3554 73.1033 6.02091 73.934 6.02091C76.26 6.02091 78.2537 6.18815 80.4135 6.18815C81.078 6.18815 85.8961 6.02091 86.893 6.02091C87.5575 6.02091 87.8898 6.18815 87.8898 6.52265C87.8898 7.02439 87.5575 7.19164 86.893 7.19164C86.0623 7.19164 85.3977 7.35888 84.7331 7.52613C83.0717 8.19512 82.5733 9.03136 81.5765 10.2021C79.7489 12.3763 71.7742 25.7561 71.1096 27.9303C70.2789 30.2718 70.2789 32.446 70.2789 32.9477V36.7944C70.2789 37.6307 70.2789 39.4704 70.445 41.8118C70.6112 43.1498 70.6112 44.655 72.771 44.9895C73.7679 45.1568 74.9308 45.1568 75.9277 45.324C76.5923 45.324 76.9245 45.6585 76.9245 45.993C76.9245 46.3275 76.7584 46.662 75.9277 46.662C71.9403 46.662 66.79 46.4948 64.9624 46.4948C63.301 46.4948 58.6491 46.662 55.9908 46.662C55.1601 46.662 54.8278 46.4948 54.8278 45.993C54.8278 45.8258 54.994 45.4913 55.8247 45.4913C56.6554 45.4913 57.32 45.324 57.6522 45.324C59.1475 44.9895 59.4798 43.9861 59.6459 42.4808C59.8121 40.1394 59.8121 37.9652 59.8121 37.1289V32.9477ZM93.7047 21.9094C93.7047 13.547 93.7047 12.0418 93.5386 10.3693C93.3724 8.86411 93.0402 8.02787 91.711 7.69338C91.3788 7.52613 90.7142 7.52613 90.0496 7.52613C89.3851 7.52613 89.0528 7.35888 89.0528 6.85714C89.0528 6.52265 89.2189 6.18815 90.2158 6.18815C92.3756 6.18815 98.3567 6.3554 98.5228 6.3554C98.8551 6.3554 105.833 6.18815 107.827 6.18815C108.824 6.18815 108.99 6.3554 108.99 6.85714C108.99 7.35888 108.491 7.35888 107.827 7.52613C107.328 7.52613 107.162 7.52613 106.664 7.69338C105.168 8.02787 104.67 8.52962 104.504 10.3693C104.338 12.0418 104.338 13.3798 104.338 21.7422V31.108C104.338 35.122 104.338 40.3066 104.67 42.6481C104.836 43.9861 105.168 44.9895 106.83 45.324C107.494 45.4913 108.491 45.4913 109.156 45.4913C110.153 45.4913 110.319 45.8258 110.319 46.1603C110.319 46.3275 110.153 46.662 109.156 46.662C105.335 46.662 99.0212 46.4948 98.6889 46.4948C98.5228 46.4948 92.2094 46.662 90.3819 46.662C89.3851 46.662 89.0528 46.4948 89.0528 45.993C89.0528 45.6585 89.3851 45.324 90.0496 45.324C90.548 45.324 91.0465 45.324 91.8772 45.1568C93.0402 44.9895 93.5386 43.8188 93.7047 42.3136C94.037 40.1394 94.037 36.2927 94.037 31.108L93.7047 21.9094ZM115.137 11.8746C113.475 8.36237 112.977 8.02787 111.149 7.86063C111.149 7.86063 110.153 7.69338 109.82 7.69338C109.322 7.69338 109.156 7.35889 109.156 7.02439C109.156 6.6899 109.488 6.3554 110.153 6.3554C113.143 6.3554 116.466 6.52265 118.626 6.52265C120.786 6.52265 123.776 6.3554 128.428 6.3554C129.425 6.3554 129.591 6.52265 129.591 7.02439C129.591 7.35889 129.259 7.52613 128.76 7.69338C128.096 7.69338 127.93 7.86063 127.431 7.86063C125.77 8.02787 125.604 8.52962 125.604 9.19861C125.604 9.8676 125.77 10.8711 126.767 13.2125C129.259 19.4007 132.582 27.0941 135.074 33.115C137.234 28.4321 141.553 18.23 144.211 12.0418C144.876 10.5366 145.042 9.8676 145.042 9.36585C145.042 8.69686 144.71 8.36237 143.547 8.19512C142.882 8.02787 141.885 8.02787 141.387 7.86063C140.556 7.69338 140.39 7.52613 140.39 7.19164C140.39 6.85714 140.722 6.52265 141.553 6.52265C145.374 6.52265 148.199 6.6899 149.03 6.6899C149.86 6.6899 153.681 6.52265 155.509 6.52265C156.34 6.52265 156.672 6.6899 156.672 7.19164C156.672 7.52613 156.34 7.69338 155.675 7.86063C155.011 7.86063 154.18 7.86063 153.349 8.36237C152.02 8.86411 151.355 10.0348 149.86 13.0453C147.7 17.561 145.541 22.2439 142.384 29.101C138.895 36.6272 136.403 41.3101 135.074 44.1533C133.412 47.331 132.914 48 132.083 48C131.419 48 130.92 47.331 129.923 44.8223L115.137 11.8746ZM173.286 18.0627C173.286 11.2056 173.286 6.6899 173.12 4.68293C172.954 3.01045 172.455 1.83972 170.96 1.50523C170.129 1.33798 169.299 1.33798 168.634 1.33798C167.803 1.33798 167.471 1.17073 167.471 0.66899C167.471 0.334495 167.637 0 168.8 0C171.458 0 177.772 0.167247 178.769 0.167247C181.759 0.167247 185.248 0 188.073 0C196.38 0 200.533 2.00697 203.025 4.34843C204.354 5.68641 206.348 8.36237 206.348 12.5436C206.348 22.0767 197.709 27.2613 189.235 27.2613C188.737 27.2613 187.74 27.2613 187.408 27.0941C187.076 26.9268 186.743 26.9268 186.743 26.4251C186.743 26.0906 186.91 25.7561 188.073 25.7561C193.223 25.7561 195.715 21.7422 195.715 16.223C195.715 11.8746 194.884 8.52962 192.724 6.18815C191.063 4.51568 189.069 3.67944 186.91 3.67944C186.079 3.67944 185.58 3.67944 185.248 3.84669C184.75 4.01394 184.584 4.34843 184.584 5.35192V29.101C184.584 33.9512 184.584 39.6376 184.916 42.1463C185.082 43.9861 185.414 45.1568 187.242 45.4913C188.073 45.6585 189.235 45.6585 189.9 45.8258C190.897 45.8258 191.063 45.993 191.063 46.4948C191.063 46.8293 190.731 46.9965 189.9 46.9965C185.58 46.9965 179.101 46.8293 178.602 46.8293C178.27 46.8293 171.625 46.9965 169.465 46.9965C168.634 46.9965 168.302 46.8293 168.302 46.3275C168.302 45.8258 168.8 45.6585 169.465 45.6585C170.129 45.6585 170.628 45.4913 171.292 45.4913C172.455 45.324 173.12 44.3206 173.286 41.9791C173.452 39.3031 173.618 34.9547 173.618 28.9338L173.286 18.0627ZM207.511 26.7596C207.511 15.554 215.153 5.51916 231.269 5.51916C245.225 5.51916 254.03 15.0523 254.03 25.5888C254.03 38.1324 245.391 47.6655 230.771 47.6655C214.489 47.6655 207.511 36.2927 207.511 26.7596ZM242.234 28.0976C242.234 19.9024 239.244 9.19861 229.275 9.19861C224.457 9.19861 219.141 11.5401 219.141 24.2509C219.141 34.1185 223.128 43.9861 232.266 43.9861C235.755 43.9861 242.234 42.6481 242.234 28.0976ZM256.024 46.1603C255.027 45.8258 254.861 44.9895 254.861 43.9861C254.861 39.3031 255.027 37.2962 255.193 35.6237C255.359 34.6202 255.692 34.453 255.858 34.453C256.19 34.453 256.356 34.6202 256.356 35.2892C256.356 35.7909 256.356 36.2927 256.522 36.7944C257.187 41.4773 261.673 44.1533 266.325 44.1533C271.309 44.1533 272.804 41.8118 272.804 39.6376C272.804 37.4634 272.14 35.7909 267.322 32.6132L263.999 30.2718C257.353 25.7561 255.692 22.0767 255.692 17.0592C255.692 10.8711 261.174 5.68641 269.98 5.68641C272.472 5.68641 274.133 5.85366 276.625 6.3554C277.456 6.52265 278.453 6.6899 279.45 7.02439C279.948 7.19164 280.114 7.35889 280.114 7.86063C280.114 9.8676 279.948 10.7038 279.948 15.7213C279.948 16.7247 279.782 17.0592 279.284 17.0592C278.951 17.0592 278.619 16.892 278.619 16.0557C278.619 15.3868 278.453 14.216 277.788 13.0453C276.625 11.0383 273.801 9.19861 270.146 9.19861C265.494 9.19861 263.999 11.8746 263.999 14.0488C263.999 16.3902 265.162 18.0627 268.152 19.9024L271.309 21.9094C279.284 26.9268 281.443 29.9373 281.443 35.2892C281.443 39.6376 279.616 43.3171 275.296 45.6585C271.973 47.4983 268.152 47.8328 265.328 47.8328C261.008 47.6655 258.184 46.9965 256.024 46.1603ZM307.029 31.2753C307.029 35.2892 307.029 40.1394 307.195 42.4808C307.361 43.8188 307.694 45.1568 309.355 45.4913C310.02 45.6585 310.684 45.6585 311.515 45.6585C312.512 45.8258 312.678 45.993 312.678 46.3275C312.678 46.662 312.346 46.8293 311.349 46.8293C307.527 46.8293 301.713 46.662 300.882 46.662C300.051 46.662 294.236 46.8293 292.575 46.8293C291.578 46.8293 291.246 46.662 291.246 46.3275C291.246 45.8258 291.744 45.6585 292.409 45.6585C292.907 45.6585 293.572 45.6585 294.236 45.4913C295.399 45.324 295.898 44.1533 296.064 42.6481C296.23 40.3066 296.23 36.6272 296.23 31.2753V10.7038C294.07 10.7038 290.581 10.7038 287.923 10.8711C284.932 11.0383 283.936 11.8746 283.105 14.0488C282.939 14.3833 282.939 14.885 282.606 15.2195C282.44 15.554 282.274 16.0557 281.942 16.0557C281.443 16.0557 281.443 15.554 281.443 14.885C281.776 12.2091 282.274 9.5331 282.606 7.02439C282.773 6.18815 283.105 5.85366 283.271 5.85366C283.603 5.85366 283.936 6.02091 284.932 6.18815C285.763 6.3554 289.086 6.6899 291.246 6.6899H315.835C317.496 6.6899 318.493 6.52265 319.157 6.52265C320.154 6.3554 320.653 6.18815 320.985 6.18815C321.649 6.18815 321.483 6.52265 321.483 8.02787C321.483 8.69686 321.151 14.216 320.985 15.554C320.985 16.3902 320.653 16.7247 320.32 16.7247C319.988 16.7247 319.822 16.3902 319.656 15.7213V14.3833C319.49 12.7108 318.825 11.5401 315.835 11.2056C313.841 11.0383 310.85 10.8711 306.531 10.8711L307.029 31.2753Z" fill="#E0E0E0"/>
</g>
<defs>
<clipPath id="clip0_191_1470">
<rect width="321" height="48" fill="white" transform="translate(0.5)"/>
</clipPath>
</defs>
</svg>
