<svg width="350" height="67" viewBox="0 0 350 67" fill="none" xmlns="http://www.w3.org/2000/svg">
<g clip-path="url(#clip0_191_1462)">
<path d="M122 51.3323V20.0864H129.54V44.6367H143.378V51.3323H122ZM147.52 51.3323V44.9492H152.754V26.4695H147.52V20.0864H165.571V26.4695H160.293V44.9492H165.571V51.3323H147.52ZM180.546 51.3323L168.128 20.0864H175.978L181.966 36.0218C182.32 36.9436 182.618 37.747 182.853 38.4322C183.119 39.1174 183.34 39.7557 183.518 40.3516C183.726 40.9475 183.904 41.5568 184.05 42.1817C184.228 42.7776 184.42 43.4605 184.627 44.235H183.252C183.657 42.4963 184.16 40.7824 184.76 39.1017C185.057 38.238 185.425 37.2114 185.868 36.0218L191.634 20.0864H199.351L186.844 51.3323H180.546ZM202.54 51.3323V20.0864H224.186V26.5588H209.86V44.8599H224.629V51.3323H202.54ZM206.088 38.5215V32.3616H222.188V38.5215H206.088ZM235.828 51.3323L226.514 20.0864H234.187L238.844 36.5128C239.05 37.256 239.228 38.0148 239.376 38.7893C239.553 39.5325 239.687 40.2467 239.775 40.9319C239.893 41.617 239.981 42.2553 240.041 42.8512C240.101 43.4159 240.159 43.8935 240.219 44.2796H239.243C239.42 43.1793 239.569 42.1973 239.687 41.3336C239.835 40.4699 239.997 39.6664 240.174 38.9232C240.352 38.1488 240.574 37.3453 240.84 36.5128L245.452 24.1484H251.484L256.008 36.5128C256.363 37.4948 256.658 38.4166 256.895 39.2803C257.132 40.144 257.31 40.9765 257.427 41.78C257.576 42.5544 257.693 43.3266 257.782 44.1011L256.895 44.235C256.955 43.6993 256.999 43.2083 257.028 42.762C257.057 42.2866 257.088 41.8402 257.117 41.4229C257.176 40.9765 257.234 40.5145 257.294 40.0391C257.354 39.5637 257.443 39.0415 257.56 38.4768C257.678 37.8809 257.842 37.2114 258.048 36.4682L262.66 20.0864H270.156L260.842 51.3323H255.076L247.714 33.3436L248.557 33.4329L241.771 51.3323H235.828ZM272.779 51.3323V44.9492H278.013V26.4695H272.779V20.0864H290.83V26.4695H285.552V44.9492H290.83V51.3323H272.779ZM297.115 51.3323V20.0864H311.085C313.068 20.0864 314.855 20.5172 316.452 21.3809C318.08 22.2446 319.35 23.4342 320.266 24.9518C321.184 26.4405 321.641 28.1367 321.641 30.0405C321.641 32.0045 321.184 33.7743 320.266 35.3522C319.359 36.8909 318.057 38.1553 316.496 39.0125C314.9 39.9052 313.097 40.3516 311.085 40.3516H304.3V51.3323H297.115ZM314.323 51.3323L306.429 37.227L314.146 36.1111L322.927 51.3323H314.323ZM304.3 34.5488H310.42C311.19 34.5488 311.855 34.3859 312.416 34.0578C313.008 33.7007 313.452 33.2097 313.746 32.5848C314.072 31.9598 314.234 31.2457 314.234 30.4422C314.234 29.6387 314.057 28.9402 313.702 28.3443C313.345 27.717 312.802 27.2177 312.15 26.9159C311.5 26.5878 310.702 26.4249 309.755 26.4249H304.3V34.5488ZM327.369 51.3323V20.0864H349.012V26.5588H334.687V44.8599H349.456V51.3323H327.369ZM330.917 38.5215V32.3616H347.017V38.5215H330.917Z" fill="#E0E0E0"/>
<path fill-rule="evenodd" clip-rule="evenodd" d="M77.7378 61.8355C76.2298 64.1298 75.0878 66.9554 72.0231 66.9554C66.865 66.9554 66.5856 58.9497 61.4232 58.9497C56.2629 58.9497 56.5423 66.9554 51.3842 66.9554C46.2262 66.9554 45.9468 58.9497 40.7843 58.9497C35.624 58.9497 35.9034 66.9554 30.7432 66.9554C25.5851 66.9554 25.3057 58.9497 20.1432 58.9497C14.9807 58.9497 15.2646 66.9554 10.1021 66.9554C8.48106 66.9554 7.34123 66.1653 6.38103 65.0806C2.54999 58.3404 0.544961 50.7058 0.566579 42.9407C0.566579 19.2229 18.7683 0 41.2212 0C63.6784 0 81.8779 19.2251 81.8779 42.9407C81.8779 49.7188 80.3877 56.1309 77.7378 61.8355Z" fill="#E0E0E0"/>
<path fill-rule="evenodd" clip-rule="evenodd" d="M77.7378 61.8355C76.2298 64.1298 75.0878 66.9554 72.0231 66.9554C66.865 66.9554 66.5856 58.9497 61.4232 58.9497C56.2629 58.9497 56.5423 66.9554 51.3842 66.9554C46.2262 66.9554 45.9468 58.9497 40.7843 58.9497C35.624 58.9497 35.9034 66.9554 30.7432 66.9554C25.5851 66.9554 25.3057 58.9497 20.1432 58.9497C14.9807 58.9497 15.2646 66.9554 10.1021 66.9554C8.48106 66.9554 7.34123 66.1653 6.38103 65.0806C2.54999 58.3404 0.544961 50.7058 0.566579 42.9407C0.566579 19.2229 18.7683 0 41.2212 0C63.6784 0 81.8779 19.2251 81.8779 42.9407C81.8779 49.7188 80.3877 56.1309 77.7378 61.8355Z" fill="#E0E0E0"/>
<path fill-rule="evenodd" clip-rule="evenodd" d="M68.9429 66.1008C79.596 50.1498 79.8732 32.4557 69.7678 13.0186C77.5526 21.0411 81.9006 31.8165 81.8779 43.0302C81.8779 49.7837 80.3367 56.1758 77.5892 61.8536C76.0258 64.139 74.8394 66.9556 71.6616 66.9556C70.575 66.9556 69.6968 66.6252 68.9429 66.1008Z" fill="#E0E0E0"/>
<path fill-rule="evenodd" clip-rule="evenodd" d="M39.041 53.6491C53.1802 53.6491 59.1322 45.3957 59.1322 33.674C59.1322 21.9479 50.1399 11.1592 39.041 11.1592C27.9466 11.1592 18.9521 21.9502 18.9521 33.6718C18.9521 45.3957 24.9019 53.6491 39.041 53.6491Z" fill="#E0E0E0"/>
<path d="M33.6415 34.337C37.8016 34.337 41.1745 30.5875 41.1745 25.9676C41.1745 21.3454 37.8038 17.5981 33.6415 17.5981C29.4813 17.5981 26.1084 21.3454 26.1084 25.9676C26.1084 30.5875 29.4791 34.337 33.6415 34.337Z" fill="#E0E0E0"/>
<path d="M32.3885 27.8982C34.4664 27.8982 36.1539 26.1686 36.1539 24.0372C36.1539 21.9013 34.4686 20.1738 32.3863 20.1738C30.3062 20.1738 28.6187 21.9013 28.6187 24.0349C28.6187 26.1686 30.304 27.8982 32.3885 27.8982Z" fill="#E0E0E0"/>
</g>
<defs>
<clipPath id="clip0_191_1462">
<rect width="349" height="67" fill="white" transform="translate(0.5)"/>
</clipPath>
</defs>
</svg>
