<svg width="338" height="74" viewBox="0 0 338 74" fill="none" xmlns="http://www.w3.org/2000/svg">
<g clip-path="url(#clip0_191_1473)">
<path fill-rule="evenodd" clip-rule="evenodd" d="M9.04226 0L29.8121 19.4145V0.044798H33.8552V19.5013L54.718 0V22.1354H63.2836V54.0636H54.7443V73.774L33.8552 55.1546V73.9878H29.8121V55.4616L9.0658 74V54.0636H0.5V22.1354H9.04226V0ZM26.7641 26.1871H4.54305V50.0118H9.06072V42.4966L26.7641 26.1871ZM13.1086 44.2944V64.9589L29.8121 50.0331V28.9024L13.1086 44.2944ZM33.9715 49.8357V28.8825L50.6798 44.2754V54.0636H50.7012V64.7479L33.9715 49.8357ZM54.7443 50.0118H59.2405V26.1871H37.185L54.7443 42.3278V50.0118ZM50.6749 22.1354V9.31986L36.9646 22.1354H50.6749ZM26.7955 22.1354H13.0853V9.31986L26.7955 22.1354Z" fill="#E0E0E0"/>
<mask id="mask0_191_1473" style="mask-type:luminance" maskUnits="userSpaceOnUse" x="80" y="9" width="258" height="56">
<path d="M80.5952 9.83545H337.5V64.1646H80.5952V9.83545Z" fill="white"/>
</mask>
<g mask="url(#mask0_191_1473)">
<path d="M163.174 21.6492H165.741V27.0161H162.418C159.814 27.0161 157.872 27.6517 156.585 28.9265C155.305 30.1974 154.662 32.2877 154.662 35.1931V52.791H149.415V21.7717H154.662V26.7215C154.662 27.0009 154.8 27.1388 155.069 27.1388C155.223 27.1388 155.339 27.1004 155.421 27.0201C155.503 26.9395 155.574 26.7826 155.657 26.5414C156.667 23.2838 159.178 21.653 163.178 21.653H163.174V21.6492ZM198.071 28.2987C199.448 30.7831 200.14 33.7768 200.14 37.2756C200.14 40.7745 199.452 43.7682 198.071 46.2526C196.69 48.7372 194.901 50.5975 192.705 51.8302C190.509 53.0629 188.147 53.6793 185.622 53.6793C180.645 53.6793 177.146 51.6504 175.126 47.5925C174.972 47.2748 174.774 47.1139 174.542 47.1139C174.31 47.1139 174.19 47.2326 174.19 47.4738V64.1187H168.944V21.7677H174.19V27.0774C174.19 27.3147 174.306 27.4374 174.542 27.4374C174.778 27.4374 174.969 27.2802 175.126 26.9587C177.146 22.9009 180.645 20.872 185.622 20.872C188.147 20.872 190.509 21.4883 192.705 22.721C194.901 23.9538 196.686 25.8141 198.071 28.2987ZM194.898 37.2756C194.898 33.6159 193.936 30.7639 192.013 28.716C190.09 26.6679 187.556 25.6457 184.402 25.6457C181.247 25.6457 178.714 26.6716 176.791 28.716C174.864 30.7639 174.16 33.6197 174.16 37.2756C174.16 40.9316 174.867 43.7874 176.791 45.8353C178.714 47.8874 181.251 48.9056 184.402 48.9056C187.553 48.9056 190.09 47.8796 192.013 45.8353C193.936 43.7911 194.898 40.9316 194.898 37.2756ZM109.718 28.3446C111.095 30.829 111.787 33.8227 111.787 37.3215C111.787 40.8206 111.099 43.8141 109.718 46.2985C108.337 48.7831 106.549 50.6436 104.352 51.8761C102.156 53.1088 99.7947 53.7252 97.2689 53.7252C92.2923 53.7252 88.7935 51.6963 86.7729 47.6384C86.6197 47.3207 86.4214 47.16 86.1892 47.16C85.9572 47.16 85.8376 47.2785 85.8376 47.5197V64.1646H80.5952V21.8138H85.8413V27.1234C85.8413 27.3608 85.9572 27.4833 86.1931 27.4833C86.4288 27.4833 86.6197 27.3264 86.7769 27.0046C88.7975 22.9468 92.296 20.9179 97.2728 20.9179C99.7984 20.9179 102.16 21.5342 104.356 22.7669C106.553 23.9997 108.337 25.8602 109.722 28.3446H109.718ZM106.541 37.3215C106.541 33.6618 105.58 30.81 103.656 28.7619C101.733 26.7175 99.196 25.6916 96.0453 25.6916C92.8948 25.6916 90.3578 26.7175 88.4344 28.7619C86.5112 30.8137 85.8039 33.6658 85.8039 37.3215C85.8039 40.9775 86.5112 43.8333 88.4344 45.8814C90.3578 47.9333 92.8909 48.9515 96.0453 48.9515C99.1997 48.9515 101.733 47.9255 103.656 45.8814C105.58 43.837 106.541 40.9775 106.541 37.3215ZM140.143 42.9376H145.681C144.944 45.843 143.436 48.3581 141.165 50.4828C138.89 52.6112 135.634 53.6715 131.395 53.6715C128.207 53.6715 125.4 53.0056 122.972 51.6733C120.543 50.3411 118.669 48.4461 117.344 45.977C116.019 43.5118 115.361 40.6098 115.361 37.2679C115.361 33.926 116.004 31.0243 117.284 28.5589C118.564 26.0937 120.364 24.1947 122.676 22.8627C124.989 21.5305 127.698 20.8643 130.807 20.8643C133.917 20.8643 136.495 21.5228 138.65 22.832C140.809 24.1451 142.418 25.8869 143.488 28.0498C144.558 30.2203 145.09 32.5937 145.09 35.1779V38.757H120.895C121.086 41.858 122.111 44.3272 123.956 46.1531C125.801 47.9829 128.281 48.8979 131.391 48.8979C133.917 48.8979 135.855 48.3735 137.195 47.3169C138.534 46.2603 139.515 44.8019 140.139 42.9298L140.143 42.9376ZM120.787 34.2896H139.095C139.095 31.587 138.414 29.4663 137.052 27.935C135.69 26.4075 133.554 25.638 130.639 25.638C127.919 25.638 125.692 26.3845 123.963 27.8776C122.235 29.3668 121.176 31.5067 120.787 34.2896ZM204.372 52.7836H209.622V9.83545H204.372V52.7873V52.7836ZM278.153 18.3799H284.284V11.6653H278.153V18.3799ZM300.788 48.163C299.834 48.2625 299.257 48.3122 299.068 48.3122C298.798 48.3122 298.576 48.2318 298.424 48.071C298.27 47.9141 298.189 47.6958 298.189 47.4125C298.189 47.2174 298.239 46.6277 298.339 45.6517C298.431 44.6794 298.484 43.1748 298.484 41.1496V26.3079H305.967L304.492 21.764H298.486V13.4109H293.242V21.7602H287.534V26.3042H293.242V42.635C293.242 46.0575 294.062 48.603 295.691 50.2722C297.323 51.9412 299.811 52.7796 303.158 52.7796H307.239V48.0098H305.196C303.214 48.0098 301.746 48.0595 300.792 48.159L300.788 48.163ZM332.5 21.764L323.812 47.7916C323.697 48.1131 323.512 48.5304 322.919 48.5304C322.323 48.5304 322.137 48.1131 322.019 47.7916L313.331 21.764H307.98L318.042 52.7836H321.601C321.832 52.7836 322.01 52.8065 322.13 52.8447C322.245 52.8831 322.342 52.9826 322.42 53.1432C322.573 53.3807 322.554 53.7404 322.36 54.2153L320.728 58.7478C320.493 59.345 320.048 59.6435 319.39 59.6435C319.154 59.6435 318.612 59.5937 317.758 59.4941C316.901 59.3946 315.798 59.345 314.436 59.345H310.178V64.1147H315.775C319.041 64.1147 321.005 63.5482 322.697 62.415C324.389 61.2821 325.698 59.2836 326.633 56.4203L337.5 22.9545V21.764H332.5ZM260.396 33.3365L252.174 21.764H246.402V22.9545L256.253 36.3759L244.241 51.589V52.7796H250.132L259.695 40.3113L268.616 52.7796H274.273V51.589L263.833 37.2719L275.15 23.0159V21.764H269.26L260.399 33.3365H260.396ZM278.712 52.7836H283.961V21.7677H278.712V52.7873V52.7836ZM244.169 42.9376C243.429 45.843 241.926 48.3581 239.655 50.4828C237.379 52.6112 234.124 53.6715 229.884 53.6715C226.696 53.6715 223.889 53.0056 221.461 51.6733C219.028 50.3411 217.159 48.4461 215.834 45.977C214.513 43.5118 213.854 40.6098 213.854 37.2679C213.854 33.926 214.498 31.0243 215.777 28.5589C217.062 26.0937 218.858 24.1947 221.17 22.8627C223.481 21.5305 226.191 20.8643 229.305 20.8643C232.418 20.8643 234.992 21.5228 237.15 22.832C239.306 24.1451 240.919 25.8869 241.988 28.0498C243.059 30.2203 243.59 32.5937 243.59 35.1779V38.757H219.393C219.587 41.858 220.607 44.3272 222.454 46.1531C224.298 47.9829 226.779 48.8979 229.889 48.8979C232.414 48.8979 234.353 48.3735 235.691 47.3169C237.03 46.2603 238.011 44.8019 238.632 42.9298H244.174L244.169 42.9376ZM219.407 34.2896H237.716C237.716 31.587 237.035 29.4663 235.678 27.935C234.313 26.4075 232.178 25.638 229.263 25.638C226.542 25.638 224.316 26.3845 222.588 27.8776C220.859 29.3668 219.797 31.5067 219.412 34.2896H219.407Z" fill="#E0E0E0"/>
</g>
</g>
<defs>
<clipPath id="clip0_191_1473">
<rect width="337" height="74" fill="white" transform="translate(0.5)"/>
</clipPath>
</defs>
</svg>
