<svg width="340" height="68" viewBox="0 0 340 68" fill="none" xmlns="http://www.w3.org/2000/svg">
<g clip-path="url(#clip0_191_1446)">
<path fill-rule="evenodd" clip-rule="evenodd" d="M6.3516 54.3192C3.25795 51.2327 1.184 47.2768 0.407665 42.9817C-0.368673 38.6866 0.18968 34.2575 2.00791 30.2877C0.185473 26.3196 -0.375169 21.89 0.40136 17.5946C1.17789 13.2992 3.25436 9.34394 6.3516 6.2605C14.7196 -2.08553 28.2872 -2.08553 36.6552 6.2605C39.748 9.34672 41.8214 13.3018 42.5977 17.596C43.374 21.8902 42.8162 26.3185 40.9989 30.2877C42.8223 34.2564 43.3834 38.6868 42.6069 42.9831C41.8303 47.2794 39.7533 51.2354 36.6552 54.3192L24.0223 66.9445C23.3463 67.5989 22.4398 67.9626 21.4977 67.9575C20.5557 67.9523 19.6532 67.5787 18.9845 66.9168L6.3516 54.3192ZM32.3115 23.7213C31.6473 24.6682 30.6945 25.3762 29.5947 25.74C28.495 26.1038 27.3069 26.1042 26.2069 25.741C23.6724 24.8626 20.9412 24.7134 18.3257 25.3105C15.7102 25.9077 13.3161 27.227 11.4171 29.1176C8.74238 31.7914 7.24025 35.4142 7.24025 39.1912C7.24025 42.9683 8.74238 46.5911 11.4171 49.2649L21.5162 59.3396L31.6195 49.2691C33.1526 47.7397 34.3165 45.8823 35.023 43.8376C35.7295 41.7929 35.96 39.6146 35.697 37.4679L24.0244 49.1098C23.3487 49.7646 22.4424 50.1287 21.5003 50.1239C20.5582 50.1192 19.6557 49.7459 18.9866 49.0844L9.95217 40.1012C9.83797 39.9879 9.74733 39.8533 9.68549 39.7049C9.62365 39.5566 9.59181 39.3975 9.59181 39.2369C9.59181 39.0762 9.62365 38.9172 9.68549 38.7689C9.74733 38.6205 9.83797 38.4858 9.95217 38.3726L10.3525 37.9733C11.3588 36.9769 12.7193 36.4178 14.1372 36.4178C15.5552 36.4178 16.9157 36.9769 17.922 37.9733L21.4928 41.5347L31.594 31.46C34.2687 28.7862 35.7708 25.1634 35.7708 21.3864C35.7708 17.6093 34.2687 13.9865 31.594 11.3127C28.913 8.64436 25.2802 7.14576 21.4928 7.14576C17.7053 7.14576 14.0725 8.64436 11.3916 11.3127C9.84702 12.8452 8.6761 14.7111 7.96912 16.7664C7.26215 18.8218 7.03802 21.0116 7.31402 23.1671C14.2171 17.0806 24.1309 16.2014 31.9133 20.5082C32.1518 20.642 32.6586 20.9075 32.846 21.0944C33.2718 21.4936 33.3783 22.1838 33.0057 22.6871L32.3136 23.7256L32.3115 23.7213Z" fill="#E0E0E0"/>
<path fill-rule="evenodd" clip-rule="evenodd" d="M238.322 39.086C245.651 35.0722 251.142 31.9377 251.142 23.9102C251.142 17.6879 246.69 11.045 236.829 11.045C227.022 11.045 221.931 18.3547 221.931 26.1698H225.823C226.883 26.1816 227.921 25.8624 228.791 25.2569C229.66 24.6515 230.319 23.7901 230.673 22.7932C231.659 20.215 233.818 18.5395 236.882 18.5395C241.2 18.5395 242.985 21.0114 242.985 23.8295C242.985 26.3567 242.186 28.2956 234.244 32.5472C227.716 36.0576 221.345 40.6809 221.345 50.2501V50.4115C221.345 52.3228 222.919 53.8667 224.809 53.8667H250.98V51.4734C250.979 50.1062 250.434 48.7953 249.465 47.8286C248.495 46.8618 247.181 46.3182 245.81 46.3171H230.407C230.673 43.739 234.003 41.3965 238.322 39.086ZM114.475 21.2514C112.291 21.2497 110.128 21.6776 108.11 22.5105C106.091 23.3434 104.257 24.5651 102.713 26.1055C101.168 27.646 99.9434 29.4751 99.1083 31.4881C98.2732 33.5012 97.8442 35.6587 97.8459 37.8373C97.8442 40.0158 98.2732 42.1733 99.1083 44.1864C99.9434 46.1994 101.168 48.0285 102.713 49.569C104.257 51.1095 106.091 52.3311 108.11 53.164C110.128 53.997 112.291 54.4248 114.475 54.4232C118.885 54.422 123.115 52.6742 126.233 49.564C129.351 46.4538 131.104 42.2358 131.105 37.8373C131.133 28.6949 123.67 21.2514 114.475 21.2514ZM114.475 47.0073C113.27 47.0101 112.075 46.7757 110.96 46.3176C109.845 45.8595 108.832 45.1866 107.978 44.3374C107.124 43.4883 106.446 42.4795 105.983 41.3689C105.521 40.2583 105.282 39.0676 105.281 37.8649C105.282 35.433 106.251 33.1009 107.975 31.3813C109.699 29.6617 112.037 28.6954 114.475 28.6949C119.539 28.6949 123.644 32.8148 123.644 37.8649C123.67 42.915 119.566 47.0073 114.475 47.0073ZM168.869 21.2514C166.982 21.2461 165.112 21.62 163.372 22.3508C161.632 23.0816 160.058 24.1544 158.743 25.5051C157.427 24.1544 155.853 23.0816 154.113 22.3508C152.373 21.62 150.504 21.2461 148.616 21.2514C144.856 21.2536 141.251 22.7442 138.592 25.3957C135.933 28.0472 134.438 31.6428 134.435 35.3929V53.7075H137.369C138.747 53.7052 140.067 53.1583 141.041 52.1865C142.015 51.2148 142.563 49.8976 142.565 48.5236V35.3653C142.562 33.7687 143.195 32.2363 144.324 31.105C145.454 29.9736 146.987 29.3359 148.588 29.332C150.192 29.3353 151.728 29.9721 152.862 31.1028C153.996 32.2335 154.634 33.7662 154.637 35.3653V53.7075H157.569C158.943 53.7002 160.258 53.1508 161.227 52.1794C162.196 51.208 162.739 49.8937 162.739 48.5236V48.1519L162.82 48.1774V35.3653C162.817 33.7687 163.45 32.2363 164.58 31.105C165.709 29.9736 167.243 29.3359 168.844 29.332C170.447 29.3359 171.983 29.9729 173.116 31.1036C174.249 32.2342 174.888 33.7666 174.891 35.3653V53.7075H177.825C180.676 53.7075 183.021 51.3672 183.021 48.5236V35.3929C183.074 27.5778 176.705 21.2493 168.869 21.2493V21.2514ZM203.01 21.2514C200.826 21.2497 198.663 21.6776 196.644 22.5105C194.626 23.3434 192.792 24.5651 191.247 26.1055C189.703 27.646 188.478 29.4751 187.643 31.4881C186.808 33.5012 186.379 35.6587 186.38 37.8373C186.377 41.1806 187.388 44.4469 189.279 47.207C191.171 49.9671 193.856 52.0919 196.981 53.3025C200.105 54.5131 203.524 54.7528 206.788 53.9901C210.052 53.2274 213.008 51.498 215.268 49.029L213.19 46.9266C212.423 46.1411 211.423 45.6238 210.337 45.4515C209.252 45.2793 208.14 45.4615 207.166 45.9709C206.015 46.56 204.752 46.8992 203.46 46.9661C202.168 47.0329 200.876 46.826 199.67 46.3589C198.464 45.8918 197.371 45.1751 196.463 44.2561C195.555 43.3371 194.852 42.2365 194.401 41.027H216.175C217.133 41.027 217.96 40.683 218.654 39.9907C219.32 39.3005 219.667 38.4765 219.64 37.5187C219.48 28.508 212.098 21.2514 203.01 21.2514ZM194.482 34.4097C195.166 32.7155 196.342 31.2639 197.859 30.2416C199.376 29.2194 201.165 28.6731 202.996 28.6731C204.827 28.6731 206.616 29.2194 208.133 30.2416C209.651 31.2639 210.827 32.7155 211.51 34.4097H194.482ZM323.311 21.2514C321.127 21.2497 318.964 21.6776 316.945 22.5105C314.927 23.3434 313.093 24.5651 311.548 26.1055C310.004 27.646 308.779 29.4751 307.944 31.4881C307.109 33.5012 306.68 35.6587 306.681 37.8373C306.68 40.0158 307.109 42.1733 307.944 44.1864C308.779 46.1994 310.004 48.0285 311.548 49.569C313.093 51.1095 314.927 52.3311 316.945 53.164C318.964 53.997 321.127 54.4248 323.311 54.4232C325.495 54.4248 327.658 53.997 329.677 53.164C331.695 52.3311 333.529 51.1095 335.074 49.569C336.618 48.0285 337.843 46.1994 338.678 44.1864C339.513 42.1733 339.942 40.0158 339.94 37.8373C339.939 33.4388 338.187 29.2207 335.069 26.1105C331.95 23.0003 327.721 21.2525 323.311 21.2514ZM323.311 47.0073C322.107 47.0073 320.915 46.7708 319.803 46.3114C318.691 45.8519 317.68 45.1785 316.829 44.3295C315.978 43.4806 315.303 42.4727 314.842 41.3635C314.382 40.2543 314.145 39.0655 314.145 37.8649C314.145 32.8148 318.248 28.6949 323.311 28.6949C328.374 28.6949 332.48 32.8148 332.48 37.8649C332.479 40.2898 331.513 42.6152 329.793 44.3297C328.074 46.0441 325.742 47.0073 323.311 47.0073ZM96.4853 24.7087C96.4864 22.9141 96.1329 21.1369 95.445 19.4787C94.7571 17.8205 93.7482 16.3137 92.4761 15.0445C91.2041 13.7754 89.6936 12.7687 88.0312 12.0821C86.3689 11.3955 84.5871 11.0423 82.7878 11.0429H67.8361C66.9226 11.0445 66.0466 11.4053 65.3981 12.047C64.7495 12.6886 64.3808 13.5594 64.3718 14.4705V53.7075H67.3315C68.7048 53.6996 70.0192 53.15 70.9874 52.1787C71.9557 51.2074 72.4992 49.8933 72.4992 48.5236V38.4489H82.1746L89.5035 51.1272C89.9437 51.9249 90.5927 52.5886 91.3812 53.0474C92.1698 53.5063 93.0684 53.7432 93.9813 53.733H99.9496L89.9293 36.4293C93.9281 33.9297 96.4874 29.5698 96.4874 24.7066L96.4853 24.7087ZM82.709 31.033H72.4992V18.6202H82.7069C84.3563 18.6201 85.9387 19.2716 87.1078 20.4321C88.277 21.5926 88.9377 23.1677 88.9456 24.8128C88.9433 26.4622 88.2853 28.0433 87.1157 29.2094C85.9461 30.3755 84.3627 31.0313 82.709 31.033ZM288.131 24.8935C288.131 17.3438 282.003 11.2043 274.434 11.2043H259.482C257.591 11.2043 256.018 12.7461 256.018 14.6595V53.8667H258.975C260.345 53.8612 261.657 53.3162 262.626 52.3505C263.594 51.3847 264.141 50.0765 264.147 48.7105V38.6358H273.821L281.15 51.2886C281.59 52.0859 282.239 52.7491 283.028 53.2076C283.816 53.6661 284.715 53.9027 285.627 53.8922H291.598L281.575 36.5885C285.546 34.089 288.131 29.7567 288.131 24.8935ZM274.353 31.1923H264.147V18.7794H274.353C275.17 18.7808 275.979 18.9428 276.734 19.2563C277.489 19.5697 278.174 20.0283 278.751 20.6059C279.328 21.1836 279.785 21.869 280.096 22.6229C280.407 23.3768 280.566 24.1844 280.564 24.9997C280.59 28.4273 277.792 31.1923 274.353 31.1923ZM294.368 27.3909V53.8667H297.328C298.697 53.8606 300.008 53.3154 300.976 52.3497C301.945 51.3841 302.491 50.0761 302.497 48.7105V22.207H299.565C298.188 22.2087 296.867 22.7554 295.892 23.7272C294.918 24.699 294.37 26.0166 294.368 27.3909ZM298.42 10.0618C297.183 10.0987 296.009 10.6147 295.147 11.5004C294.285 12.3861 293.803 13.5718 293.803 14.806C293.803 16.0403 294.285 17.226 295.147 18.1117C296.009 18.9974 297.183 19.5134 298.42 19.5503C299.681 19.5458 300.889 19.0424 301.779 18.1505C302.668 17.2586 303.166 16.0512 303.164 14.7933C303.167 14.1709 303.047 13.554 302.81 12.9783C302.573 12.4026 302.223 11.8795 301.782 11.4393C301.341 10.9991 300.817 10.6505 300.24 10.4137C299.662 10.1769 299.044 10.0587 298.42 10.0618Z" fill="#E0E0E0"/>
</g>
<defs>
<clipPath id="clip0_191_1446">
<rect width="340" height="68" fill="white"/>
</clipPath>
</defs>
</svg>
