<svg width="246" height="42" viewBox="0 0 246 42" fill="none" xmlns="http://www.w3.org/2000/svg">
<g clip-path="url(#clip0_191_1454)">
<path d="M44.7833 11.2534V0.00585938H18.1704V41.5269H31.7541V11.2534H44.7833Z" fill="#E0E0E0"/>
<path fill-rule="evenodd" clip-rule="evenodd" d="M68.5717 29.6465L76.8599 41.5273H92.0378L81.8671 28.1037C88.3034 23.8557 89.7803 19.1325 89.7803 15.0596C89.7803 12.2173 89.0874 9.66412 87.7013 7.39918C86.3151 5.09035 84.2591 3.29186 81.5333 2.00409C78.8071 0.672064 75.4807 0.00585938 71.5533 0.00585938H50.1382V41.5269H63.7219V29.6465H68.5717ZM70.4443 20.721H63.7219V10.9292H70.4443C72.2462 10.9292 73.6093 11.3733 74.5332 12.2612C75.5037 13.1049 75.9886 14.2818 75.9886 15.7916C75.9886 17.3904 75.5268 18.6115 74.6028 19.4552C73.6785 20.2988 72.2927 20.721 70.4443 20.721Z" fill="#E0E0E0"/>
<path d="M107.521 0.0057494V21.8112C107.521 24.3421 108.121 26.296 109.322 27.6727C110.57 29.049 112.441 29.7375 114.936 29.7375C117.431 29.7375 119.302 29.049 120.55 27.6727C121.843 26.2514 122.49 24.2978 122.49 21.8112V0.00537109H136.074V21.8112C136.074 26.1182 135.127 29.8041 133.233 32.868C131.338 35.8877 128.751 38.1746 125.47 39.7287C122.236 41.2385 118.632 41.9933 114.659 41.9933C110.686 41.9933 107.128 41.2385 103.986 39.7287C100.89 38.1746 98.4415 35.8877 96.6397 32.868C94.884 29.8484 94.0061 26.1629 94.0061 21.8112V0.00537109H107.521V0.0057494ZM180.354 11.2533V0.0057494H140.85V11.2529H153.741V41.5272H167.325V11.2533H180.354ZM228.262 0.0057494V41.5268H214.678V27.0262H198.115V41.5268H184.531V0.0057494H198.115V15.7128H214.678V0.00537109H228.262V0.0057494ZM0.0107422 0.0057494H13.0507V11.2506H0.0111267L0.0107422 0.0057494Z" fill="#E0E0E0"/>
<path d="M245.988 30.4179H232.927V41.5542H245.988V30.4179Z" fill="#E0E0E0"/>
</g>
<defs>
<clipPath id="clip0_191_1454">
<rect width="246" height="42" fill="white"/>
</clipPath>
</defs>
</svg>
